<svg width="24" height="24" viewBox="0 0 24 24" fill="none" xmlns="http://www.w3.org/2000/svg">
<rect width="24" height="24" fill="white"/>
<path fill-rule="evenodd" clip-rule="evenodd" d="M8.88643 19.2019L6.75179 23.2129L5.33936 22.4612L7.474 18.4502L8.88643 19.2019Z" fill="#1E398D"/>
<path fill-rule="evenodd" clip-rule="evenodd" d="M0 15.0511L4.33253 13.707L4.8066 15.2352L0.474065 16.5792L0 15.0511Z" fill="#1E398D"/>
<path fill-rule="evenodd" clip-rule="evenodd" d="M4.70763 9.50285L0.712402 7.39455L1.45913 5.97949L5.45436 8.08779L4.70763 9.50285Z" fill="#1E398D"/>
<path fill-rule="evenodd" clip-rule="evenodd" d="M17.9687 2.05435L15.8604 6.04957L14.4453 5.30284L16.5536 1.30762L17.9687 2.05435Z" fill="#1E398D"/>
<path fill-rule="evenodd" clip-rule="evenodd" d="M23.3523 9.51228L19.0303 10.8458L18.5586 9.31689L22.8806 7.9834L23.3523 9.51228Z" fill="#1E398D"/>
<path fill-rule="evenodd" clip-rule="evenodd" d="M8.70204 5.3808L7.36328 1.07461L8.89115 0.599609L10.2299 4.9058L8.70204 5.3808Z" fill="#1E398D"/>
<path fill-rule="evenodd" clip-rule="evenodd" d="M9.70264 8.53521C9.70277 8.53528 9.70251 8.53514 9.70264 8.53521L21.9977 14.7882C23.0436 15.3292 23.0199 16.8402 21.9505 17.3449L21.9426 17.3487L18.2559 19.039L16.6031 22.6762C16.1105 23.7575 14.5828 23.7975 14.0399 22.7358L7.78573 10.4437C7.1806 9.23347 8.45982 7.90204 9.70264 8.53521ZM9.46053 10.2071L15.2981 21.6805L16.8277 18.3143L16.8297 18.31C16.9636 18.02 17.2005 17.755 17.5368 17.6085L20.9429 16.0468L9.46053 10.2071Z" fill="#1E398D"/>
</svg>
