<svg width="24" height="24" viewBox="0 0 24 24" fill="none" xmlns="http://www.w3.org/2000/svg">
<rect width="24" height="24" fill="white"/>
<path fill-rule="evenodd" clip-rule="evenodd" d="M5.96338 6.35951C5.96338 2.84383 8.81305 0 12.3229 0C15.8339 0 18.6768 2.84472 18.6824 6.35823L18.6824 6.35951C18.6824 9.87518 15.8328 12.719 12.3229 12.719C8.80724 12.719 5.96338 9.86937 5.96338 6.35951ZM12.3229 1.6C9.69578 1.6 7.56338 3.72841 7.56338 6.35951C7.56338 8.98663 9.6918 11.119 12.3229 11.119C14.9498 11.119 17.082 8.99098 17.0824 6.36018C17.0779 3.7272 14.9487 1.6 12.3229 1.6Z" fill="#1E398D"/>
<path fill-rule="evenodd" clip-rule="evenodd" d="M9.19922 7.75728C9.19922 7.75675 9.19922 7.75623 9.99922 7.75623C10.7992 7.75623 10.7992 7.75572 10.7992 7.75521L10.7992 7.75423L10.7992 7.75237L10.7992 7.74906L10.7991 7.74406C10.799 7.74144 10.799 7.74019 10.799 7.74024L10.8001 7.75478C10.8019 7.77375 10.8062 7.80818 10.8161 7.85268C10.8362 7.94378 10.876 8.06144 10.9516 8.17533C11.0715 8.3561 11.3767 8.67889 12.2847 8.67889C13.1927 8.67889 13.4979 8.3561 13.6178 8.17533C13.6933 8.06144 13.7331 7.94378 13.7533 7.85268C13.7631 7.80818 13.7674 7.77375 13.7692 7.75478L13.7704 7.74024C13.7704 7.74032 13.7703 7.74157 13.7702 7.74406L13.7702 7.74906L13.7701 7.75237L13.7701 7.75423L13.7701 7.75521C13.7701 7.75572 13.7701 7.75623 14.5701 7.75623C15.3701 7.75623 15.3701 7.75675 15.3701 7.75728L15.3701 7.75839L15.3701 7.76072L15.3701 7.7659L15.3699 7.77828L15.3688 7.81092C15.3677 7.83604 15.3657 7.86796 15.3621 7.90572C15.355 7.98096 15.3414 8.08111 15.3156 8.19811C15.2643 8.43001 15.1612 8.74302 14.9511 9.05979C14.4997 9.74035 13.6622 10.2789 12.2847 10.2789C10.9072 10.2789 10.0697 9.74035 9.61824 9.05979C9.40811 8.74302 9.30507 8.43001 9.25379 8.19811C9.22792 8.08111 9.21438 7.98096 9.20725 7.90572C9.20367 7.86796 9.20167 7.83604 9.20056 7.81092L9.19947 7.77828L9.19927 7.7659L9.19923 7.76072L9.19922 7.75839L9.19922 7.75728Z" fill="#1E398D"/>
<path fill-rule="evenodd" clip-rule="evenodd" d="M12.3229 15.6C8.67707 15.6 5.47125 17.4921 3.63999 20.3544C3.1128 21.183 3.71781 22.305 4.73729 22.305H19.9036C20.9269 22.305 21.53 21.1805 21.0015 20.3555L21.0013 20.355C19.1699 17.492 15.9686 15.6 12.3229 15.6ZM2.29174 19.4929C4.40506 16.1892 8.10932 14 12.3229 14C16.5368 14 20.236 16.1895 22.3491 19.4929C23.5819 21.4181 22.1492 23.905 19.9036 23.905H4.73729C2.48787 23.905 1.06678 21.4158 2.29092 19.4941L2.29174 19.4929Z" fill="#1E398D"/>
</svg>
