<svg width="12" height="12" viewBox="0 0 12 12" fill="none" xmlns="http://www.w3.org/2000/svg">
<path fill-rule="evenodd" clip-rule="evenodd" d="M2.10531 10.1572C1.0145 9.06637 0.479212 7.62984 0.500617 6.20996L1.30053 6.22202C1.28226 7.4335 1.73869 8.65918 2.67099 9.59148C3.73566 10.6562 5.17839 11.102 6.54916 10.9276L6.65012 11.7212C5.04133 11.9259 3.35024 11.4021 2.10531 10.1572Z" fill="#1E398D"/>
<path fill-rule="evenodd" clip-rule="evenodd" d="M3.42253 2.21808L3.9834 2.77894C4.33216 3.12475 4.3387 3.6937 3.98848 4.04392L3.54111 4.49129C3.37249 4.65991 3.14689 4.7517 2.91006 4.7517H2.90339C2.67006 4.74781 2.44681 4.65689 2.27681 4.48688L1.71449 3.92457C1.7084 4.42693 1.91734 4.91674 2.30761 5.26911C2.71604 5.63812 3.28122 5.7959 3.83027 5.69295L4.03782 5.65404L8.75534 10.3784C9.07448 10.6975 9.58098 10.6943 9.88372 10.3901C10.1873 10.0851 10.1883 9.58192 9.87116 9.26476L5.15491 4.54396L5.19487 4.3358C5.30631 3.75525 5.12585 3.1663 4.70101 2.74146C4.35806 2.39851 3.89308 2.21403 3.42253 2.21808ZM2.7829 1.5035C3.66693 1.26811 4.61798 1.52706 5.2667 2.17578C5.82552 2.7346 6.09467 3.49907 6.01269 4.27064L10.4369 8.69907C11.0585 9.32074 11.0728 10.3294 10.4507 10.9544C9.82788 11.5802 8.81374 11.5682 8.18965 10.9441L3.76237 6.51038C3.0404 6.58408 2.31399 6.35299 1.7715 5.86289C1.04863 5.21023 0.752446 4.2212 1.0006 3.28604L1.38721 3.38863L1.00002 3.28824C1.05331 3.08272 1.21284 2.93437 1.40224 2.88338L1.40584 2.88241C1.60762 2.83009 1.81381 2.89251 1.95436 3.03306L2.8425 3.9212C2.86129 3.94 2.88385 3.95044 2.91328 3.95165C2.93935 3.95094 2.95957 3.94146 2.97542 3.92561L3.4228 3.47823C3.45573 3.4453 3.45819 3.38467 3.42001 3.34692L3.41838 3.34531L2.53025 2.45717C2.3897 2.31661 2.3273 2.11043 2.37962 1.90866C2.4329 1.70313 2.59243 1.55478 2.78183 1.50379L2.7829 1.5035Z" fill="#1E398D"/>
<path fill-rule="evenodd" clip-rule="evenodd" d="M6.49372 1.00684C7.65965 1.1496 8.79408 1.67315 9.69207 2.57114C11.12 3.99911 11.5989 6.01357 11.1204 7.81813L10.3471 7.61308C10.7545 6.07665 10.3474 4.35784 9.12639 3.13683C8.3583 2.36873 7.3903 1.9226 6.39648 1.80091L6.49372 1.00684Z" fill="#1E398D"/>
<path fill-rule="evenodd" clip-rule="evenodd" d="M7.78757 0L8.2056 0.682093L6.75629 1.57032L7.70677 2.89577L7.05666 3.36198L5.60498 1.33763L7.78757 0Z" fill="#1E398D"/>
</svg>
