<svg width="24" height="24" viewBox="0 0 24 24" fill="none" xmlns="http://www.w3.org/2000/svg">
<rect width="24" height="24" fill="white"/>
<path fill-rule="evenodd" clip-rule="evenodd" d="M4.46847 1H15.4529C16.1088 1 16.6505 1.38617 16.9598 1.90608L23.0798 11.6492C23.5045 12.3711 23.6744 13.2604 23.57 14.1187C23.57 14.1188 23.57 14.1187 23.57 14.1187L23.0104 18.7231C23.0103 18.7236 23.0104 18.7226 23.0104 18.7231C22.9051 19.613 22.2496 20.5403 21.1993 20.5403H20.0227V18.9403H21.1993C21.2007 18.9403 21.2058 18.9403 21.217 18.935C21.2296 18.929 21.2524 18.9147 21.2802 18.8844C21.3373 18.8222 21.4014 18.7057 21.4213 18.5362L21.4217 18.5331L21.9817 13.9257C22.0463 13.3951 21.9364 12.8669 21.7058 12.4697L15.5859 2.72691C15.5478 2.66187 15.5097 2.62844 15.4861 2.61351C15.4644 2.59977 15.4538 2.59998 15.453 2.6L4.47041 2.6C3.79527 2.6037 3.23358 3.11095 3.16007 3.7785C3.16005 3.7787 3.16009 3.77829 3.16007 3.7785L1.60708 18.1742C1.57774 18.4456 1.64299 18.6798 1.73151 18.8234C1.78611 18.9119 1.82749 18.9383 1.84278 18.945H2.81186V20.545H1.83296C1.15699 20.545 0.653805 20.1241 0.369575 19.6631C0.0816205 19.1961 -0.0484301 18.6018 0.0163118 18.0026C0.0163182 18.0026 0.0163054 18.0027 0.0163118 18.0026L1.56938 3.60612C1.73141 2.12842 2.97614 1.00648 4.465 1.00001L4.46847 1Z" fill="#1E398D"/>
<path fill-rule="evenodd" clip-rule="evenodd" d="M7.74951 18.9062H15.5713V20.5063H7.74951V18.9062Z" fill="#1E398D"/>
<path fill-rule="evenodd" clip-rule="evenodd" d="M5.13721 10.2148H17.8677V11.8148H5.13721V10.2148Z" fill="#1E398D"/>
<path fill-rule="evenodd" clip-rule="evenodd" d="M5.27802 18.4877C4.41218 18.4877 3.60732 19.2651 3.60732 20.356C3.60732 21.447 4.41218 22.2244 5.27802 22.2244C6.14386 22.2244 6.94872 21.447 6.94872 20.356C6.94872 19.2651 6.14386 18.4877 5.27802 18.4877ZM2.00732 20.356C2.00732 18.4996 3.41481 16.8877 5.27802 16.8877C7.14124 16.8877 8.54872 18.4996 8.54872 20.356C8.54872 22.2125 7.14124 23.8244 5.27802 23.8244C3.41481 23.8244 2.00732 22.2125 2.00732 20.356Z" fill="#1E398D"/>
<path fill-rule="evenodd" clip-rule="evenodd" d="M18.0417 18.4877C17.1759 18.4877 16.371 19.2651 16.371 20.356C16.371 21.447 17.1759 22.2244 18.0417 22.2244C18.9075 22.2244 19.7124 21.447 19.7124 20.356C19.7124 19.2651 18.9075 18.4877 18.0417 18.4877ZM14.771 20.356C14.771 18.4996 16.1785 16.8877 18.0417 16.8877C19.9049 16.8877 21.3124 18.4996 21.3124 20.356C21.3124 22.2125 19.9049 23.8244 18.0417 23.8244C16.1785 23.8244 14.771 22.2125 14.771 20.356Z" fill="#1E398D"/>
<path fill-rule="evenodd" clip-rule="evenodd" d="M12.8886 7.73344L12.3238 7.23928L13.3774 6.03516L19.066 10.9977L13.3926 16.224L12.3086 15.0472L16.6691 11.0304L12.8886 7.73344Z" fill="#1E398D"/>
</svg>
