<svg width="24" height="24" viewBox="0 0 24 24" fill="none" xmlns="http://www.w3.org/2000/svg">
<rect width="24" height="24" fill="white"/>
<path fill-rule="evenodd" clip-rule="evenodd" d="M4.51974 4.05996C3.84157 4.05996 3.30313 4.6035 3.30313 5.26234V15.9338C3.30313 16.5927 3.84157 17.1362 4.51974 17.1362V18.7362C2.96777 18.7362 1.70312 17.4861 1.70312 15.9338V5.26234C1.70312 3.71002 2.96777 2.45996 4.51974 2.45996H19.3194C20.8713 2.45996 22.136 3.71002 22.136 5.26234V15.9338C22.136 17.4861 20.8713 18.7362 19.3194 18.7362V17.1362C19.9975 17.1362 20.536 16.5927 20.536 15.9338V5.26234C20.536 4.6035 19.9975 4.05996 19.3194 4.05996H4.51974Z" fill="#1E398D"/>
<path fill-rule="evenodd" clip-rule="evenodd" d="M0 17.1357H8.05706L9.39989 17.6719H14.4575L15.8336 17.1357H23.835V19.3497C23.835 20.5341 22.9045 21.5495 21.6922 21.5495H2.14283C0.930464 21.5495 0 20.5341 0 19.3497V17.1357ZM1.6 18.7357V19.3497C1.6 19.7123 1.87476 19.9495 2.14283 19.9495H21.6922C21.9602 19.9495 22.235 19.7123 22.235 19.3497V18.7357H16.1343L14.7583 19.2719H9.09226L7.74943 18.7357H1.6Z" fill="#1E398D"/>
<path d="M14.8218 11.26L9.19426 8.39878C8.94752 8.27541 8.68655 8.53639 8.80992 8.78313L11.6711 14.4059C11.7803 14.6195 12.084 14.61 12.1836 14.3964L12.9523 12.7025C12.9808 12.6408 13.0282 12.5886 13.0946 12.5601L14.8123 11.7725C15.0306 11.6728 15.0353 11.3691 14.8218 11.26Z" stroke="#1E398D" stroke-width="1.2" stroke-miterlimit="10"/>
</svg>
