<svg width="24" height="24" viewBox="0 0 24 24" fill="none" xmlns="http://www.w3.org/2000/svg">
<rect width="24" height="24" fill="white"/>
<path d="M19.572 22.9727H4.46494C3.32634 22.9727 2.40576 22.0521 2.40576 20.9135V3.05918C2.40576 1.92057 3.32634 1 4.46494 1H19.572C20.7107 1 21.6312 1.92057 21.6312 3.05918V20.9135C21.6361 22.0521 20.7107 22.9727 19.572 22.9727Z" stroke="#1E398D" stroke-width="1.6" stroke-miterlimit="10"/>
<path d="M2.3999 6.49414H21.6302" stroke="#1E398D" stroke-width="1.6" stroke-miterlimit="10"/>
<path d="M6.52308 4.61012C6.99939 4.61012 7.38551 4.22399 7.38551 3.74769C7.38551 3.27138 6.99939 2.88525 6.52308 2.88525C6.04677 2.88525 5.66064 3.27138 5.66064 3.74769C5.66064 4.22399 6.04677 4.61012 6.52308 4.61012Z" stroke="#1E398D" stroke-miterlimit="10"/>
<path d="M17.507 4.61012C17.9833 4.61012 18.3694 4.22399 18.3694 3.74769C18.3694 3.27138 17.9833 2.88525 17.507 2.88525C17.0307 2.88525 16.6445 3.27138 16.6445 3.74769C16.6445 4.22399 17.0307 4.61012 17.507 4.61012Z" stroke="#1E398D" stroke-miterlimit="10"/>
<path d="M4.76221 16.5888C4.81755 16.7733 5.49093 18.0001 7.30811 18.0001C8.96848 18.0001 9.75255 16.8932 9.75255 15.98C9.75255 14.6148 8.63641 14.1905 7.78777 13.8677C7.05905 13.6278 6.45948 13.4526 6.48715 12.8346C6.49637 12.4564 6.86534 12.1335 7.35423 12.1335C8.24899 12.1335 8.48882 12.6132 8.56261 13.0467L9.70642 12.4379C9.51271 11.8752 8.92236 10.9805 7.36346 10.9805C6.08128 10.9805 5.07583 11.7553 5.04816 12.8899C5.02049 14.2643 5.99826 14.6886 7.01293 15.0392C7.65863 15.2513 8.35045 15.3989 8.35045 15.9708C8.35045 16.3675 8.01838 16.7918 7.35423 16.7918C6.31189 16.7918 5.823 15.9155 5.77688 15.731L4.76221 16.5888Z" fill="#1E398D"/>
<path d="M14.4289 12.853L14.3551 13.4802C14.0323 13.0652 13.5341 12.7423 12.6855 12.7423C11.2557 12.7423 10.2503 13.84 10.2503 15.3712C10.2503 16.9025 11.2557 18.0001 12.6855 18.0001C13.4511 18.0001 14.0046 17.7419 14.3551 17.2345L14.4289 17.871H15.6373V12.853H14.4289ZM12.953 13.7847C13.8293 13.7847 14.4104 14.3289 14.4104 15.3712C14.4104 16.3306 13.7924 16.9486 12.953 16.9486C12.1044 16.9486 11.5232 16.3675 11.5232 15.3712C11.5232 14.4765 12.0306 13.7847 12.953 13.7847Z" fill="#1E398D"/>
<path d="M17.1616 11.5708L16.9863 12.853H16.193V13.8123H16.9033V15.7955C16.9033 17.0593 17.2631 17.871 18.4991 17.871H19.2371V16.8287H18.822C18.2777 16.8287 18.167 16.3859 18.167 15.8693V13.8123H19.1356V12.853H18.167V11.5708H17.1616Z" fill="#1E398D"/>
</svg>
