<svg width="24" height="24" viewBox="0 0 24 24" fill="none" xmlns="http://www.w3.org/2000/svg">
<rect width="24" height="24" fill="white"/>
<path fill-rule="evenodd" clip-rule="evenodd" d="M4.21061 20.3143C2.02901 18.1327 0.958424 15.2597 1.00123 12.4199L2.60105 12.444C2.56453 14.867 3.47738 17.3184 5.34198 19.183C7.47132 21.3123 10.3568 22.204 13.0983 21.8553L13.3002 23.4425C10.0827 23.8518 6.70047 22.8042 4.21061 20.3143Z" fill="#1E398D"/>
<path fill-rule="evenodd" clip-rule="evenodd" d="M6.84506 4.43616L7.96679 5.55789C8.66431 6.24951 8.67741 7.3874 7.97697 8.08783L7.08222 8.98258C6.74498 9.31982 6.29378 9.50339 5.82012 9.50339H5.80679C5.34011 9.49562 4.89363 9.31377 4.55362 8.97377L3.42899 7.84913C3.41681 8.85386 3.83468 9.83348 4.61523 10.5382C5.43208 11.2762 6.56244 11.5918 7.66054 11.3859L8.07564 11.3081L17.5107 20.7568C18.149 21.3951 19.162 21.3885 19.7674 20.7801C20.3746 20.1701 20.3767 19.1638 19.7423 18.5295L10.3098 9.08791L10.3897 8.67159C10.6126 7.51049 10.2517 6.3326 9.40202 5.48292C8.71611 4.79701 7.78616 4.42806 6.84506 4.43616ZM5.5658 3.007C7.33386 2.53622 9.23596 3.05412 10.5334 4.35155C11.651 5.4692 12.1893 6.99813 12.0254 8.54128L20.8737 17.3981C22.117 18.6415 22.1456 20.6588 20.9015 21.9088C19.6558 23.1605 17.6275 23.1363 16.3793 21.8881L7.52474 13.0208C6.0808 13.1682 4.62799 12.706 3.543 11.7258C2.09726 10.4205 1.50489 8.44239 2.00121 6.57207L2.77442 6.77725L2.00005 6.57649C2.10662 6.16544 2.42568 5.86874 2.80448 5.76675L2.81168 5.76482C3.21525 5.66019 3.62762 5.78503 3.90872 6.06612L5.68499 7.8424C5.72259 7.87999 5.76771 7.90088 5.82656 7.90331C5.87869 7.90187 5.91914 7.88292 5.95085 7.85121L6.8456 6.95646C6.91146 6.8906 6.91638 6.76933 6.84002 6.69384L6.83677 6.69062L5.0605 4.91434C4.77939 4.63323 4.65461 4.22085 4.75923 3.81731C4.8658 3.40625 5.18487 3.10956 5.56366 3.00757L5.5658 3.007Z" fill="#1E398D"/>
<path fill-rule="evenodd" clip-rule="evenodd" d="M12.9874 2.01367C15.3193 2.29921 17.5882 3.34629 19.3841 5.14228C22.2401 7.99822 23.1978 12.0271 22.2407 15.6363L20.6942 15.2262C21.509 12.1533 20.6948 8.71569 18.2528 6.27365C16.7166 4.73746 14.7806 3.84519 12.793 3.60181L12.9874 2.01367Z" fill="#1E398D"/>
<path fill-rule="evenodd" clip-rule="evenodd" d="M15.5751 0L16.4112 1.36419L13.5126 3.14065L15.4135 5.79155L14.1133 6.72395L11.21 2.67525L15.5751 0Z" fill="#1E398D"/>
</svg>
