<svg width="24" height="24" viewBox="0 0 24 24" fill="none" xmlns="http://www.w3.org/2000/svg">
<rect width="24" height="24" fill="white"/>
<path d="M19.572 22.9727H4.46494C3.32634 22.9727 2.40576 22.0521 2.40576 20.9135V3.05918C2.40576 1.92057 3.32634 1 4.46494 1H19.572C20.7107 1 21.6312 1.92057 21.6312 3.05918V20.9135C21.6361 22.0521 20.7107 22.9727 19.572 22.9727Z" stroke="#1E398D" stroke-width="1.6" stroke-miterlimit="10"/>
<path d="M2.3999 6.49414H21.6302" stroke="#1E398D" stroke-width="1.6" stroke-miterlimit="10"/>
<path d="M6.52308 4.61012C6.99939 4.61012 7.38551 4.22399 7.38551 3.74769C7.38551 3.27138 6.99939 2.88525 6.52308 2.88525C6.04677 2.88525 5.66064 3.27138 5.66064 3.74769C5.66064 4.22399 6.04677 4.61012 6.52308 4.61012Z" stroke="#1E398D" stroke-miterlimit="10"/>
<path d="M17.507 4.61012C17.9833 4.61012 18.3694 4.22399 18.3694 3.74769C18.3694 3.27138 17.9833 2.88525 17.507 2.88525C17.0307 2.88525 16.6445 3.27138 16.6445 3.74769C16.6445 4.22399 17.0307 4.61012 17.507 4.61012Z" stroke="#1E398D" stroke-miterlimit="10"/>
<path d="M6.52295 14.7361L10.6413 18.8544L17.5069 9.2417" stroke="#1E398D" stroke-width="1.6" stroke-miterlimit="10"/>
</svg>
