<svg width="24" height="24" viewBox="0 0 24 24" fill="none" xmlns="http://www.w3.org/2000/svg">
<rect width="24" height="24" fill="white"/>
<path fill-rule="evenodd" clip-rule="evenodd" d="M2.63642 2.26849C3.52174 1.38316 4.95215 1.38316 5.83748 2.26849L8.29427 4.72527C9.1796 5.6106 9.1796 7.04101 8.29427 7.92633L6.90662 9.31397L7.22927 10.0953C7.22927 10.0953 7.22926 10.0952 7.22927 10.0953C8.422 12.9829 10.7302 15.2715 13.6315 16.435L14.2827 16.6972L15.6739 15.306C16.5592 14.4207 17.9896 14.4207 18.875 15.306L21.3317 17.7628C22.2171 18.6481 22.2171 20.0785 21.3317 20.9638L19.8463 22.4493C19.8434 22.452 19.8404 22.4545 19.8376 22.4572L19.5674 22.7281C18.9239 23.3736 18.0171 23.5714 17.129 23.5654C16.2294 23.5593 15.2198 23.3453 14.2087 23.0237C12.1823 22.3792 9.98365 21.2483 8.32063 20.1663C7.20747 19.4477 6.21409 18.5734 5.34453 17.5899C5.34415 17.5895 5.34492 17.5904 5.34453 17.5899L4.72015 16.89C3.53642 15.695 1.98693 13.2137 1.00099 10.7732C0.503134 9.5409 0.126053 8.26426 0.026117 7.12293C-0.0714374 6.00879 0.0814653 4.83893 0.87642 4.04398L0.993953 3.92645C1.04698 3.86372 1.10399 3.80093 1.16545 3.73946C1.16545 3.73946 1.16545 3.73947 1.16545 3.73946L2.63642 2.26849ZM1.74623 5.5955C1.62195 5.91846 1.56646 6.37169 1.62002 6.98336C1.70073 7.9051 2.01719 9.01719 2.4845 10.1739C3.42437 12.5003 4.88197 14.7868 5.86912 15.7763L5.88488 15.7921L6.54215 16.5289C7.32361 17.4129 8.20814 18.1894 9.18946 18.8227L9.19202 18.8244C10.765 19.8479 12.8342 20.9076 14.6937 21.499C15.6258 21.7955 16.464 21.9609 17.1398 21.9654C17.5347 21.9681 17.8336 21.9163 18.0564 21.8317L18.4903 21.5012C18.5838 21.4299 18.665 21.3636 18.7373 21.2956L20.2004 19.8325C20.4609 19.572 20.4609 19.1546 20.2004 18.8941L17.7436 16.4373C17.4831 16.1769 17.0658 16.1769 16.8053 16.4373L14.6662 18.5765L13.036 17.92C9.7335 16.5957 7.10741 13.9913 5.75045 10.7061L5.02016 8.93767L7.1629 6.79496C7.1629 6.79496 7.1629 6.79496 7.1629 6.79496C7.42339 6.53448 7.42339 6.11713 7.1629 5.85665L4.70611 3.39986C4.44562 3.13937 4.02828 3.13937 3.76779 3.39986C3.76779 3.39986 3.76779 3.39985 3.76779 3.39986L2.29683 4.87083C2.23765 4.93001 2.17697 5.00322 2.10973 5.09569L1.74623 5.5955Z" fill="#1E398D"/>
<path fill-rule="evenodd" clip-rule="evenodd" d="M11.0938 0C18.0029 0 23.5996 5.6023 23.5996 12.5059H21.9996C21.9996 6.4855 17.1188 1.6 11.0938 1.6V0Z" fill="#1E398D"/>
<path fill-rule="evenodd" clip-rule="evenodd" d="M12.6533 3.07227C16.6761 3.73147 19.8527 6.89628 20.5233 10.9146L18.9452 11.178C18.3874 7.83626 15.7421 5.19975 12.3945 4.65121L12.6533 3.07227Z" fill="#1E398D"/>
</svg>
