<svg width="24" height="24" viewBox="0 0 24 24" fill="none" xmlns="http://www.w3.org/2000/svg">
<g clip-path="url(#clip0)">
<rect width="24" height="24" fill="white"/>
<path fill-rule="evenodd" clip-rule="evenodd" d="M8.17207 24.0001H3.94971V22.3086H8.17207V24.0001ZM10.0913 24.0001V22.3086H14.3137V24.0001H10.0913ZM20.4553 24.0001H16.233V22.3086H20.4553V24.0001Z" fill="#1E398D"/>
<path fill-rule="evenodd" clip-rule="evenodd" d="M3.53271 8.73912C3.53271 3.92253 7.39098 0 12.1735 0C16.9561 0 20.8144 3.92252 20.8144 8.73912C20.8144 10.9031 20.0306 12.8784 18.7476 14.4006L18.7347 14.416L12.1735 21.4885L5.61241 14.416L5.59945 14.4006C4.31647 12.8784 3.53271 10.9031 3.53271 8.73912ZM12.1735 1.69155C8.34515 1.69155 5.22426 4.83666 5.22426 8.73912C5.22426 10.4803 5.85089 12.0674 6.88027 13.2955L12.1735 19.0013L17.4668 13.2955C18.4962 12.0674 19.1228 10.4803 19.1228 8.73912C19.1228 4.83667 16.0019 1.69155 12.1735 1.69155Z" fill="#1E398D"/>
<path fill-rule="evenodd" clip-rule="evenodd" d="M7.54736 8.43003C7.54736 5.87409 9.61672 3.80469 12.1727 3.80469C14.7293 3.80469 16.798 5.87971 16.798 8.43003C16.798 10.986 14.7286 13.0554 12.1727 13.0554C9.61672 13.0554 7.54736 10.986 7.54736 8.43003ZM12.1727 5.49624C10.551 5.49624 9.23891 6.80829 9.23891 8.43003C9.23891 10.0518 10.551 11.3638 12.1727 11.3638C13.7944 11.3638 15.1065 10.0518 15.1065 8.43003C15.1065 6.8125 13.7937 5.49624 12.1727 5.49624Z" fill="#1E398D"/>
</g>
<defs>
<clipPath id="clip0">
<rect width="24" height="24" fill="white"/>
</clipPath>
</defs>
</svg>
