<svg width="12" height="12" viewBox="0 0 12 12" fill="none" xmlns="http://www.w3.org/2000/svg">
<path fill-rule="evenodd" clip-rule="evenodd" d="M6.09484 7.8C4.33021 7.8 2.78097 8.71356 1.89482 10.092C1.6462 10.4815 1.93009 11.0145 2.41744 11.0145H8.29316V11.8145H2.41744C1.31911 11.8145 0.620188 10.6005 1.22103 9.66066L1.22156 9.65983C2.24891 8.06144 4.04697 7 6.09484 7C6.93534 7 7.73394 7.17838 8.45399 7.50011L8.12763 8.23051C7.50873 7.95398 6.82119 7.8 6.09484 7.8Z" fill="#1E398D"/>
<path fill-rule="evenodd" clip-rule="evenodd" d="M3.00024 3.09689C3.00024 1.38486 4.38793 0 6.09713 0C7.80656 0 9.19405 1.38746 9.19405 3.09689C9.19405 4.80893 7.80633 6.19379 6.09713 6.19379C4.3851 6.19379 3.00024 4.80609 3.00024 3.09689ZM6.09713 0.8C4.8293 0.8 3.80024 1.82715 3.80024 3.09689C3.80024 4.36472 4.82739 5.39378 6.09713 5.39378C7.36497 5.39378 8.39405 4.36663 8.39405 3.09689C8.39405 1.8293 7.36474 0.8 6.09713 0.8Z" fill="#1E398D"/>
<path fill-rule="evenodd" clip-rule="evenodd" d="M9.68335 11.0096V7.71191H10.4833V11.0096H9.68335Z" fill="#1E398D"/>
<path fill-rule="evenodd" clip-rule="evenodd" d="M8.43579 8.9624H11.7334V9.7624H8.43579V8.9624Z" fill="#1E398D"/>
<path fill-rule="evenodd" clip-rule="evenodd" d="M5.4415 3.97015C5.4972 4.05411 5.6413 4.20909 6.07826 4.20909C6.51522 4.20909 6.65932 4.05411 6.71502 3.97015C6.75067 3.9164 6.76951 3.86078 6.77905 3.81764C6.7837 3.7966 6.78573 3.78038 6.78656 3.7716C6.78695 3.76744 6.78706 3.76518 6.78706 3.76514L6.78706 3.76514L6.787 3.76727L6.78696 3.76982L6.78695 3.77149L6.78694 3.77243L6.78694 3.77292C6.78694 3.77317 6.78694 3.77343 7.18694 3.77343C7.58694 3.77344 7.58694 3.7737 7.58694 3.77397L7.58694 3.77452L7.58693 3.77568L7.58691 3.77826L7.58682 3.78439L7.58628 3.8005C7.58573 3.81287 7.58475 3.82855 7.58299 3.84708C7.57949 3.884 7.57285 3.93307 7.56018 3.99037C7.53507 4.10391 7.48462 4.25721 7.38168 4.41238C7.16021 4.74624 6.74997 5.00909 6.07826 5.00909C5.40655 5.00909 4.99631 4.74624 4.77484 4.41238C4.67191 4.25721 4.62145 4.10391 4.59634 3.99037C4.58367 3.93307 4.57703 3.884 4.57353 3.84708C4.57177 3.82855 4.57079 3.81287 4.57024 3.8005L4.56971 3.78439L4.56961 3.77826L4.56959 3.77568L4.56958 3.77452L4.56958 3.77397C4.56958 3.7737 4.56958 3.77344 4.96958 3.77343C5.36958 3.77343 5.36958 3.77317 5.36958 3.77292L5.36958 3.77243L5.36957 3.77149L5.36956 3.76982L5.36952 3.76727L5.36946 3.76514C5.36945 3.76501 5.36955 3.76728 5.36996 3.7716C5.37079 3.78038 5.37282 3.7966 5.37747 3.81764C5.38701 3.86078 5.40585 3.9164 5.4415 3.97015Z" fill="#1E398D"/>
</svg>
