<svg width="24" height="24" viewBox="0 0 24 24" fill="none" xmlns="http://www.w3.org/2000/svg">
<rect width="24" height="24" fill="white"/>
<path fill-rule="evenodd" clip-rule="evenodd" d="M12.1897 15.6C8.66041 15.6 5.56194 17.4271 3.78963 20.1839C3.2924 20.963 3.86018 22.029 4.83489 22.029H16.5863V23.629H4.83489C2.63822 23.629 1.24038 21.201 2.44206 19.3213L2.44312 19.3197C4.49783 16.1229 8.09393 14 12.1897 14C13.8707 14 15.4679 14.3568 16.908 15.0002L16.2553 16.461C15.0175 15.908 13.6424 15.6 12.1897 15.6Z" fill="#1E398D"/>
<path fill-rule="evenodd" clip-rule="evenodd" d="M6.00049 6.19378C6.00049 2.76972 8.77587 0 12.1943 0C15.6131 0 18.3881 2.77492 18.3881 6.19378C18.3881 9.61786 15.6127 12.3876 12.1943 12.3876C8.7702 12.3876 6.00049 9.61218 6.00049 6.19378ZM12.1943 1.6C9.65861 1.6 7.60049 3.65429 7.60049 6.19378C7.60049 8.72944 9.65478 10.7876 12.1943 10.7876C14.7299 10.7876 16.7881 8.73326 16.7881 6.19378C16.7881 3.6586 14.7295 1.6 12.1943 1.6Z" fill="#1E398D"/>
<path fill-rule="evenodd" clip-rule="evenodd" d="M19.3667 22.0191V15.4238H20.9667V22.0191H19.3667Z" fill="#1E398D"/>
<path fill-rule="evenodd" clip-rule="evenodd" d="M16.8716 17.9248H23.4669V19.5248H16.8716V17.9248Z" fill="#1E398D"/>
<path fill-rule="evenodd" clip-rule="evenodd" d="M10.883 7.94029C10.9944 8.10823 11.2826 8.41818 12.1565 8.41818C13.0304 8.41818 13.3186 8.10823 13.43 7.94029C13.5013 7.83281 13.539 7.72157 13.5581 7.63528C13.5674 7.59319 13.5715 7.56076 13.5731 7.5432C13.5739 7.53488 13.5741 7.53036 13.5741 7.53027L13.5741 7.53028L13.574 7.53454L13.5739 7.53965L13.5739 7.54298L13.5739 7.54485L13.5739 7.54584C13.5739 7.54635 13.5739 7.54686 14.3739 7.54687C15.1739 7.54688 15.1739 7.5474 15.1739 7.54794L15.1739 7.54904L15.1739 7.55136L15.1738 7.55651L15.1736 7.56879L15.1726 7.60099C15.1715 7.62574 15.1695 7.65711 15.166 7.69417C15.159 7.76801 15.1457 7.86615 15.1204 7.98074C15.0701 8.20783 14.9692 8.51442 14.7634 8.82476C14.3204 9.49248 13.4999 10.0182 12.1565 10.0182C10.8131 10.0182 9.99262 9.49248 9.54968 8.82476C9.34381 8.51442 9.24289 8.20783 9.19268 7.98074C9.16734 7.86615 9.15406 7.76801 9.14706 7.69417C9.14355 7.65711 9.14158 7.62574 9.14048 7.60099L9.13941 7.56879L9.13921 7.55651L9.13917 7.55136L9.13916 7.54904L9.13916 7.54794C9.13916 7.5474 9.13916 7.54688 9.93916 7.54687C10.7392 7.54686 10.7392 7.54635 10.7392 7.54584L10.7392 7.54485L10.7391 7.54298L10.7391 7.53965L10.739 7.53454L10.7389 7.53028C10.7389 7.53002 10.7391 7.53456 10.7399 7.5432C10.7416 7.56076 10.7456 7.59319 10.7549 7.63528C10.774 7.72157 10.8117 7.83281 10.883 7.94029Z" fill="#1E398D"/>
</svg>
