<svg width="12" height="12" viewBox="0 0 12 12" fill="none" xmlns="http://www.w3.org/2000/svg">
<path fill-rule="evenodd" clip-rule="evenodd" d="M7.24997 10.4277H4.74585V9.92773H7.24997V10.4277Z" fill="#1E398D"/>
<path fill-rule="evenodd" clip-rule="evenodd" d="M4.37685 1.5002C4.10776 1.5002 3.89058 1.71829 3.89058 1.98647V10.2393C3.89058 10.5084 4.10867 10.7255 4.37685 10.7255H7.61918C7.88481 10.7255 8.1038 10.5085 8.10546 10.2383V1.98647C8.10546 1.71738 7.88736 1.5002 7.61918 1.5002H4.37685ZM3.09058 1.98647C3.09058 1.27776 3.66463 0.700195 4.37685 0.700195H7.61918C8.32789 0.700195 8.90546 1.27425 8.90546 1.98647V10.2393L8.90545 10.2411C8.90226 10.9474 8.33018 11.5255 7.61918 11.5255H4.37685C3.66814 11.5255 3.09058 10.9515 3.09058 10.2393V1.98647Z" fill="#1E398D"/>
<path fill-rule="evenodd" clip-rule="evenodd" d="M8.9043 1.94824L8.9043 9.64398H3.09163L3.09163 1.94824L8.9043 1.94824ZM8.1043 2.74824L3.89163 2.74824L3.89163 8.84398H8.1043L8.1043 2.74824Z" fill="#1E398D"/>
<path fill-rule="evenodd" clip-rule="evenodd" d="M8.50314 9.64473H3.49268V8.84473H8.50314V9.64473Z" fill="#1E398D"/>
<path fill-rule="evenodd" clip-rule="evenodd" d="M9.72976 6.09718C9.72976 5.66072 9.6275 5.24919 9.44526 4.88663L10.16 4.52734C10.3977 5.00022 10.5298 5.53465 10.5298 6.09718C10.5298 6.71293 10.3701 7.29197 10.0931 7.79347L9.39282 7.40673C9.60653 7.01974 9.72976 6.57327 9.72976 6.09718Z" fill="#1E398D"/>
<path fill-rule="evenodd" clip-rule="evenodd" d="M11.0999 6.09527C11.0999 5.25665 10.8762 4.46999 10.4859 3.79315L11.179 3.39355C11.6374 4.18869 11.8999 5.1127 11.8999 6.09527C11.8999 7.08267 11.635 8.00899 11.1744 8.80615L10.4817 8.4059C10.8742 7.72667 11.0999 6.93789 11.0999 6.09527Z" fill="#1E398D"/>
<path fill-rule="evenodd" clip-rule="evenodd" d="M1.47046 6.09718C1.47046 5.53465 1.60248 5.00022 1.84017 4.52734L2.55496 4.88663C2.37271 5.24919 2.27046 5.66071 2.27046 6.09718C2.27046 6.57327 2.39368 7.01974 2.60739 7.40673L1.90708 7.79347C1.63014 7.29197 1.47046 6.71293 1.47046 6.09718Z" fill="#1E398D"/>
<path fill-rule="evenodd" clip-rule="evenodd" d="M0.100098 6.09527C0.100098 5.1127 0.362587 4.18869 0.821043 3.39355L1.5141 3.79315C1.12385 4.46999 0.900098 5.25665 0.900098 6.09527C0.900098 6.93789 1.12584 7.72667 1.51833 8.4059L0.825654 8.80615C0.365015 8.00899 0.100098 7.08267 0.100098 6.09527Z" fill="#1E398D"/>
</svg>
