<svg width="24" height="24" viewBox="0 0 24 24" fill="none" xmlns="http://www.w3.org/2000/svg">
<rect width="24" height="24" fill="white"/>
<path fill-rule="evenodd" clip-rule="evenodd" d="M4.6697 0.600098H16.5492L14.508 19.2672L12.9175 19.0933L14.7647 2.2001H4.67164C3.99623 2.2038 3.4343 2.71125 3.36076 3.37908C3.36074 3.37929 3.36078 3.37887 3.36076 3.37908L1.80745 17.7778C1.80744 17.7779 1.80746 17.7777 1.80745 17.7778C1.77761 18.0575 1.84352 18.2953 1.93139 18.4392C1.98381 18.5251 2.02356 18.5519 2.03905 18.5591H3.00796V20.1591H2.0288C1.35128 20.1591 0.848672 19.7365 0.565686 19.2728C0.27934 18.8037 0.152302 18.2081 0.216523 17.6076L1.77007 3.2067C1.93213 1.72873 3.17709 0.60658 4.66622 0.600105L4.6697 0.600098Z" fill="#1E398D"/>
<path fill-rule="evenodd" clip-rule="evenodd" d="M7.94629 18.521H15.7701V20.121H7.94629V18.521Z" fill="#1E398D"/>
<path fill-rule="evenodd" clip-rule="evenodd" d="M8.88842 5.70117L13.0591 9.19755L8.91414 12.9252L7.84424 11.7356L10.6192 9.23997L7.86053 6.92732L8.88842 5.70117Z" fill="#1E398D"/>
<path fill-rule="evenodd" clip-rule="evenodd" d="M4.74512 8.41846H11.8393V10.0185H4.74512V8.41846Z" fill="#1E398D"/>
<path fill-rule="evenodd" clip-rule="evenodd" d="M5.47456 18.102C4.60831 18.102 3.80313 18.8797 3.80313 19.9711C3.80313 21.0625 4.60831 21.8402 5.47456 21.8402C6.3408 21.8402 7.14599 21.0625 7.14599 19.9711C7.14599 18.8797 6.3408 18.102 5.47456 18.102ZM2.20312 19.9711C2.20312 18.1142 3.61094 16.502 5.47456 16.502C7.33818 16.502 8.74599 18.1142 8.74599 19.9711C8.74599 21.828 7.33818 23.4402 5.47456 23.4402C3.61094 23.4402 2.20312 21.828 2.20312 19.9711Z" fill="#1E398D"/>
<path fill-rule="evenodd" clip-rule="evenodd" d="M18.2412 18.102C17.3749 18.102 16.5697 18.8797 16.5697 19.9711C16.5697 21.0625 17.3749 21.8402 18.2412 21.8402C19.1074 21.8402 19.9126 21.0625 19.9126 19.9711C19.9126 18.8797 19.1074 18.102 18.2412 18.102ZM14.9697 19.9711C14.9697 18.1142 16.3775 16.502 18.2412 16.502C20.1048 16.502 21.5126 18.1142 21.5126 19.9711C21.5126 21.828 20.1048 23.4402 18.2412 23.4402C16.3775 23.4402 14.9697 21.828 14.9697 19.9711Z" fill="#1E398D"/>
<path fill-rule="evenodd" clip-rule="evenodd" d="M15.1113 5.48193H17.691C18.3245 5.48193 18.8515 5.84215 19.1655 6.33521L22.8226 10.6865C23.5009 11.4959 23.9047 12.5713 23.777 13.6839L23.7452 13.9611L23.7402 13.9661L23.2117 18.2914C23.2117 18.2918 23.2117 18.291 23.2117 18.2914C23.1057 19.1749 22.4478 20.0981 21.4005 20.0981H20.2237V18.4981H21.4005C21.402 18.4981 21.4074 18.4981 21.4191 18.4925C21.4322 18.4863 21.4553 18.4719 21.4832 18.4416C21.5406 18.3793 21.6035 18.2648 21.623 18.1017L21.6232 18.0996L22.1806 13.538C22.1822 13.519 22.1847 13.4962 22.189 13.4707C22.1899 13.465 22.1911 13.458 22.1927 13.4499C22.245 12.8549 22.0269 12.2282 21.5974 11.7155C21.5973 11.7154 21.5975 11.7157 21.5974 11.7155L17.8588 7.26729L17.8245 7.20879C17.7864 7.1437 17.7479 7.11043 17.7243 7.09548C17.7026 7.08172 17.692 7.08192 17.6911 7.08193L15.1113 7.08193V5.48193ZM23.7775 13.6115C23.7775 13.6094 23.7777 13.613 23.7775 13.621V13.6115Z" fill="#1E398D"/>
</svg>
