<svg width="12" height="12" viewBox="0 0 12 12" fill="none" xmlns="http://www.w3.org/2000/svg">
<g clip-path="url(#clip0)">
<path fill-rule="evenodd" clip-rule="evenodd" d="M0.600098 2.79785H11.203V10.5448L11.203 10.5465C11.1996 11.3491 10.5501 11.9998 9.74552 11.9998H2.05512C1.25085 11.9998 0.600098 11.3491 0.600098 10.5448V2.79785ZM1.41366 3.61141V10.5448C1.41366 10.8998 1.70016 11.1863 2.05512 11.1863H9.74552C10.0999 11.1863 10.3875 10.9001 10.3895 10.5439V3.61141H1.41366Z" fill="#1E398D"/>
<path d="M8.3791 7.29095L4.233 5.18213C4.05295 5.09087 3.8581 5.28326 3.95182 5.46331L6.06064 9.60695C6.13956 9.7648 6.36648 9.7574 6.438 9.59955L7.00529 8.35153C7.02502 8.30466 7.06202 8.26767 7.10888 8.24793L8.3717 7.66832C8.52955 7.59432 8.53449 7.36988 8.3791 7.29095Z" stroke="#1E398D" stroke-width="0.8" stroke-miterlimit="10"/>
<path fill-rule="evenodd" clip-rule="evenodd" d="M4.52314 0.3116C4.8894 0.105771 5.34392 0 5.89522 0C6.44655 0 6.90124 0.105782 7.26785 0.311454C7.63794 0.519075 7.89199 0.813842 8.06199 1.14665C8.38957 1.78794 8.40828 2.58324 8.4034 3.20692L7.58987 3.20056C7.59486 2.56142 7.563 1.95824 7.33748 1.51675C7.23094 1.30817 7.0828 1.14048 6.8698 1.02099C6.65333 0.899546 6.34404 0.813561 5.89522 0.813561C5.44637 0.813561 5.13753 0.899557 4.92171 1.02084C4.70941 1.14014 4.56199 1.30756 4.45615 1.51593C4.23197 1.95725 4.20172 2.56028 4.20796 3.19977L3.39444 3.20771C3.38835 2.58438 3.40496 1.78893 3.7308 1.14747C3.89997 0.814455 4.15335 0.519409 4.52314 0.3116Z" fill="#1E398D"/>
</g>
<defs>
<clipPath id="clip0">
<rect width="12" height="12" fill="white"/>
</clipPath>
</defs>
</svg>
