<svg width="24" height="24" viewBox="0 0 24 24" fill="none" xmlns="http://www.w3.org/2000/svg">
<g clip-path="url(#clip0)">
<rect width="24" height="24" fill="white"/>
<path fill-rule="evenodd" clip-rule="evenodd" d="M-0.00878906 3.6911C3.39093 1.33667 7.47881 0 11.9851 0C16.5007 0 20.5974 1.33637 24.006 3.6798L23.0996 4.99827C19.9566 2.83747 16.1758 1.6 11.9851 1.6C7.8047 1.6 4.03454 2.83717 0.902151 5.00647L-0.00878906 3.6911Z" fill="#1E398D"/>
<path fill-rule="evenodd" clip-rule="evenodd" d="M2.93115 8.37043C5.56997 6.51557 8.64933 5.47559 11.9999 5.47559C15.3497 5.47559 18.4282 6.51015 21.0713 8.35419L20.1558 9.6664C17.7682 8.00065 15.0068 7.07559 11.9999 7.07559C8.99392 7.07559 6.23338 8.00498 3.85125 9.67941L2.93115 8.37043Z" fill="#1E398D"/>
<path fill-rule="evenodd" clip-rule="evenodd" d="M12.0141 12.6225C10.1119 12.6225 8.32696 13.1979 6.69962 14.2616L5.82422 12.9223C7.68717 11.7047 9.77276 11.0225 12.0141 11.0225C14.2484 11.0225 16.3227 11.6936 18.18 12.8902L17.3135 14.2352C15.6903 13.1895 13.9135 12.6225 12.0141 12.6225Z" fill="#1E398D"/>
<path fill-rule="evenodd" clip-rule="evenodd" d="M8.13379 19.7335C8.13379 17.6009 9.86099 15.8672 12.0001 15.8672C14.1335 15.8672 15.8664 17.6001 15.8664 19.7335C15.8664 21.8661 14.1392 23.5998 12.0001 23.5998C9.86752 23.5998 8.13379 21.8726 8.13379 19.7335ZM12.0001 17.4672C10.7463 17.4672 9.73379 18.4829 9.73379 19.7335C9.73379 20.9873 10.7495 21.9998 12.0001 21.9998C13.2539 21.9998 14.2664 20.9841 14.2664 19.7335C14.2664 18.4837 13.2499 17.4672 12.0001 17.4672Z" fill="#1E398D"/>
</g>
<defs>
<clipPath id="clip0">
<rect width="24" height="24" fill="white"/>
</clipPath>
</defs>
</svg>
