<svg width="12" height="12" viewBox="0 0 12 12" fill="none" xmlns="http://www.w3.org/2000/svg">
<path d="M9.78602 11.4863H2.23247C1.66317 11.4863 1.20288 11.026 1.20288 10.4567V1.52959C1.20288 0.960287 1.66317 0.5 2.23247 0.5H9.78602C10.3553 0.5 10.8156 0.960287 10.8156 1.52959V10.4567C10.818 11.026 10.3553 11.4863 9.78602 11.4863Z" stroke="#1E398D" stroke-width="0.8" stroke-miterlimit="10"/>
<path d="M1.19995 3.24707H10.8151" stroke="#1E398D" stroke-width="0.8" stroke-miterlimit="10"/>
<path d="M3.26154 2.30482C3.49969 2.30482 3.69275 2.11175 3.69275 1.8736C3.69275 1.63544 3.49969 1.44238 3.26154 1.44238C3.02338 1.44238 2.83032 1.63544 2.83032 1.8736C2.83032 2.11175 3.02338 2.30482 3.26154 2.30482Z" stroke="#1E398D" stroke-width="0.5" stroke-miterlimit="10"/>
<path d="M8.75348 2.30482C8.99164 2.30482 9.1847 2.11175 9.1847 1.8736C9.1847 1.63544 8.99164 1.44238 8.75348 1.44238C8.51533 1.44238 8.32227 1.63544 8.32227 1.8736C8.32227 2.11175 8.51533 2.30482 8.75348 2.30482Z" stroke="#1E398D" stroke-width="0.5" stroke-miterlimit="10"/>
<path d="M3.26147 7.36779L5.32065 9.42697L8.75343 4.62061" stroke="#1E398D" stroke-width="0.8" stroke-miterlimit="10"/>
</svg>
