<svg width="12" height="12" viewBox="0 0 12 12" fill="none" xmlns="http://www.w3.org/2000/svg">
<path fill-rule="evenodd" clip-rule="evenodd" d="M2.44442 7.74228L2.4496 0.692498L1.6278 0.691895L1.62256 7.83064L1.6312 7.87218C1.79314 8.6509 2.47642 9.21094 3.27443 9.21094H10.3473V8.38914H3.27443C2.8808 8.38914 2.54095 8.12216 2.44442 7.74228Z" fill="#1E398D"/>
<path fill-rule="evenodd" clip-rule="evenodd" d="M0 0.910832L0.0730309 0.0922852L10.7223 1.04242C11.373 1.05484 11.8608 1.65791 11.7243 2.30217L10.9634 5.91135C10.9633 5.91151 10.9634 5.9112 10.9634 5.91135C10.8723 6.34811 10.5144 6.67309 10.0799 6.73273L10.0671 6.73448L2.2304 7.56071L2.14422 6.74344L9.97295 5.91786C10.0677 5.90286 10.1405 5.8322 10.1588 5.74406L10.9203 2.13221C10.9492 1.99589 10.844 1.86402 10.7019 1.86402H10.6836L0 0.910832Z" fill="#1E398D"/>
<path fill-rule="evenodd" clip-rule="evenodd" d="M3.1286 10.2222C2.93206 10.2222 2.71828 10.4049 2.71828 10.7003C2.71828 10.9956 2.93206 11.1784 3.1286 11.1784C3.32513 11.1784 3.53891 10.9956 3.53891 10.7003C3.53891 10.4049 3.32513 10.2222 3.1286 10.2222ZM1.89648 10.7003C1.89648 10.0137 2.41804 9.40039 3.1286 9.40039C3.83915 9.40039 4.36071 10.0137 4.36071 10.7003C4.36071 11.3869 3.83915 12.0002 3.1286 12.0002C2.41804 12.0002 1.89648 11.3869 1.89648 10.7003Z" fill="#1E398D"/>
<path fill-rule="evenodd" clip-rule="evenodd" d="M9.27337 10.2222C9.07684 10.2222 8.86306 10.4049 8.86306 10.7003C8.86306 10.9956 9.07684 11.1784 9.27337 11.1784C9.4699 11.1784 9.68368 10.9956 9.68368 10.7003C9.68368 10.4049 9.4699 10.2222 9.27337 10.2222ZM8.04126 10.7003C8.04126 10.0137 8.56282 9.40039 9.27337 9.40039C9.98393 9.40039 10.5055 10.0137 10.5055 10.7003C10.5055 11.3869 9.98393 12.0002 9.27337 12.0002C8.56282 12.0002 8.04126 11.3869 8.04126 10.7003Z" fill="#1E398D"/>
</svg>
