<svg width="12" height="12" viewBox="0 0 12 12" fill="none" xmlns="http://www.w3.org/2000/svg">
<path fill-rule="evenodd" clip-rule="evenodd" d="M2.98169 3.17975C2.98169 1.42191 4.40652 0 6.16145 0C7.91697 0 9.3384 1.42236 9.3412 3.17912L9.3412 3.17975C9.3412 4.93759 7.91639 6.35951 6.16145 6.35951C4.40362 6.35951 2.98169 4.93469 2.98169 3.17975ZM6.16145 0.8C4.84789 0.8 3.78169 1.8642 3.78169 3.17975C3.78169 4.49331 4.8459 5.55951 6.16145 5.55951C7.4749 5.55951 8.54102 4.49549 8.5412 3.18009C8.53894 1.8636 7.47434 0.8 6.16145 0.8Z" fill="#fff"/>
<path fill-rule="evenodd" clip-rule="evenodd" d="M4.59961 3.87864C4.59961 3.87838 4.59961 3.87811 4.99961 3.87811C5.39961 3.87812 5.39961 3.87786 5.39961 3.87761L5.39961 3.87712L5.3996 3.87618L5.39959 3.87453L5.39955 3.87203C5.39952 3.87072 5.3995 3.8701 5.3995 3.87012L5.40006 3.87739C5.40096 3.88687 5.40311 3.90409 5.40803 3.92634C5.4181 3.97189 5.438 4.03072 5.47578 4.08767C5.53573 4.17805 5.68835 4.33945 6.14234 4.33945C6.59633 4.33945 6.74894 4.17805 6.8089 4.08767C6.84667 4.03072 6.86657 3.97189 6.87665 3.92634C6.88157 3.90409 6.88372 3.88687 6.88462 3.87739L6.88518 3.87012C6.88518 3.87016 6.88515 3.87078 6.88512 3.87203L6.88508 3.87453L6.88507 3.87618L6.88507 3.87712L6.88507 3.87761C6.88507 3.87786 6.88507 3.87812 7.28507 3.87811C7.68507 3.87811 7.68507 3.87838 7.68507 3.87864L7.68507 3.87919L7.68506 3.88036L7.68504 3.88295L7.68494 3.88914L7.6844 3.90546C7.68384 3.91802 7.68284 3.93398 7.68105 3.95286C7.67749 3.99048 7.67071 4.04056 7.65778 4.09906C7.63214 4.21501 7.58062 4.37151 7.47556 4.52989C7.24983 4.87018 6.83108 5.13945 6.14234 5.13945C5.45359 5.13945 5.03484 4.87018 4.80912 4.52989C4.70406 4.37151 4.65254 4.21501 4.6269 4.09906C4.61396 4.04056 4.60719 3.99048 4.60362 3.95286C4.60184 3.93398 4.60083 3.91802 4.60028 3.90546L4.59974 3.88914L4.59964 3.88295L4.59962 3.88036L4.59961 3.87919L4.59961 3.87864Z" fill="#fff"/>
<path fill-rule="evenodd" clip-rule="evenodd" d="M6.16144 7.8C4.33854 7.8 2.73563 8.74605 1.82 10.1772C1.5564 10.5915 1.85891 11.1525 2.36864 11.1525H9.95179C10.4635 11.1525 10.765 10.5903 10.5008 10.1777L10.5006 10.1775C9.58493 8.74602 7.98429 7.8 6.16144 7.8ZM1.14587 9.74643C2.20253 8.09458 4.05466 7 6.16144 7C8.26842 7 10.118 8.09475 11.1745 9.74643C11.791 10.7091 11.0746 11.9525 9.95179 11.9525H2.36864C1.24393 11.9525 0.533392 10.7079 1.14546 9.74707L1.14587 9.74643Z" fill="#fff"/>
</svg>
