<svg width="12" height="12" viewBox="0 0 12 12" fill="none" xmlns="http://www.w3.org/2000/svg">
<path fill-rule="evenodd" clip-rule="evenodd" d="M2.25987 2.02998C1.92079 2.02998 1.65156 2.30175 1.65156 2.63117V7.96691C1.65156 8.29633 1.92078 8.5681 2.25987 8.5681V9.3681C1.48389 9.3681 0.851562 8.74307 0.851562 7.96691V2.63117C0.851562 1.85501 1.48389 1.22998 2.25987 1.22998H9.65968C10.4357 1.22998 11.068 1.85501 11.068 2.63117V7.96691C11.068 8.74307 10.4357 9.3681 9.65968 9.3681V8.5681C9.99876 8.5681 10.268 8.29633 10.268 7.96691V2.63117C10.268 2.30175 9.99876 2.02998 9.65968 2.02998H2.25987Z" fill="#1E398D"/>
<path fill-rule="evenodd" clip-rule="evenodd" d="M0 8.56787H4.02853L4.69994 8.83596H7.22877L7.9168 8.56787H11.9175V9.67487C11.9175 10.267 11.4523 10.7748 10.8461 10.7748H1.07142C0.465232 10.7748 0 10.267 0 9.67487V8.56787ZM0.8 9.36787V9.67487C0.8 9.85615 0.937381 9.97476 1.07142 9.97476H10.8461C10.9801 9.97476 11.1175 9.85615 11.1175 9.67487V9.36787H8.06715L7.37913 9.63596H4.54613L3.87471 9.36787H0.8Z" fill="#1E398D"/>
<path d="M7.41091 5.63L4.59713 4.19939C4.47376 4.13771 4.34327 4.26819 4.40496 4.39156L5.83557 7.20297C5.89014 7.30973 6.04198 7.30498 6.0918 7.19822L6.47614 6.35124C6.49038 6.3204 6.5141 6.2943 6.54732 6.28007L7.40616 5.88623C7.5153 5.83641 7.51767 5.68457 7.41091 5.63Z" stroke="#1E398D" stroke-width="0.6" stroke-miterlimit="10"/>
</svg>
