<svg width="24" height="24" viewBox="0 0 24 24" fill="none" xmlns="http://www.w3.org/2000/svg">
<rect width="24" height="24" fill="white"/>
<path d="M19.4115 5.43848H15.3218V6.46586H19.4115V5.43848Z" fill="#1E398D"/>
<path d="M13.8598 5.43848H9.77002V6.46586H13.8598V5.43848Z" fill="#1E398D"/>
<path d="M8.30754 5.43848H4.21777V6.46586H8.30754V5.43848Z" fill="#1E398D"/>
<path fill-rule="evenodd" clip-rule="evenodd" d="M4.19873 14.0029H19.8017V23.1899H18.2017V15.6029H5.79873V23.1899H4.19873V14.0029Z" fill="#1E398D"/>
<path fill-rule="evenodd" clip-rule="evenodd" d="M13.5337 23.1907V14.9766H15.1337V23.1907H13.5337Z" fill="#1E398D"/>
<path fill-rule="evenodd" clip-rule="evenodd" d="M8.86621 23.1907V14.9766H10.4662V23.1907H8.86621Z" fill="#1E398D"/>
<path fill-rule="evenodd" clip-rule="evenodd" d="M2.91403 1.6C2.18896 1.6 1.6 2.18646 1.6 2.91403V21.0858C1.6 21.8109 2.18646 22.3998 2.91403 22.3998H21.0858C21.8097 22.3998 22.3998 21.8097 22.3998 21.0858V2.91403C22.3998 2.18896 21.8134 1.6 21.0858 1.6H2.91403ZM0 2.91403C0 1.30037 1.30774 0 2.91403 0H21.0858C22.6995 0 23.9998 1.30774 23.9998 2.91403V21.0858C23.9998 22.6933 22.6933 23.9998 21.0858 23.9998H2.91403C1.30037 23.9998 0 22.6921 0 21.0858V2.91403Z" fill="#1E398D"/>
<path fill-rule="evenodd" clip-rule="evenodd" d="M0.799805 9.79883H23.1997V11.3988H0.799805V9.79883Z" fill="#1E398D"/>
</svg>
