<svg width="12" height="12" viewBox="0 0 12 12" fill="none" xmlns="http://www.w3.org/2000/svg">
<path fill-rule="evenodd" clip-rule="evenodd" d="M2.33485 0.299805H8.2746L7.25402 9.63336L6.45876 9.54641L7.38236 1.0998H2.33582C1.99811 1.10166 1.71715 1.35538 1.68038 1.68929C1.68037 1.6894 1.68039 1.68919 1.68038 1.68929L0.903725 8.88864C0.903719 8.8887 0.903731 8.88859 0.903725 8.88864C0.888803 9.02849 0.921762 9.1474 0.965695 9.21938C0.991903 9.26232 1.01178 9.27571 1.01953 9.27933H1.50398V10.0793H1.0144C0.67564 10.0793 0.424336 9.86798 0.282843 9.63617C0.13967 9.4016 0.0761509 9.1038 0.108261 8.80357L0.885036 1.60311C0.966065 0.86412 1.58855 0.303046 2.33311 0.299808L2.33485 0.299805Z" fill="#fff"/>
<path fill-rule="evenodd" clip-rule="evenodd" d="M3.97314 9.26025H7.88506V10.0603H3.97314V9.26025Z" fill="#fff"/>
<path fill-rule="evenodd" clip-rule="evenodd" d="M4.44421 2.85059L6.52957 4.59878L4.45707 6.46262L3.92212 5.86779L5.30961 4.61999L3.93026 3.46366L4.44421 2.85059Z" fill="#fff"/>
<path fill-rule="evenodd" clip-rule="evenodd" d="M2.37256 4.20898H5.91965V5.00898H2.37256V4.20898Z" fill="#fff"/>
<path fill-rule="evenodd" clip-rule="evenodd" d="M2.73728 9.05098C2.30416 9.05098 1.90156 9.43985 1.90156 9.98555C1.90156 10.5312 2.30416 10.9201 2.73728 10.9201C3.1704 10.9201 3.57299 10.5312 3.57299 9.98555C3.57299 9.43985 3.1704 9.05098 2.73728 9.05098ZM1.10156 9.98555C1.10156 9.05711 1.80547 8.25098 2.73728 8.25098C3.66909 8.25098 4.37299 9.05712 4.37299 9.98555C4.37299 10.914 3.66909 11.7201 2.73728 11.7201C1.80547 11.7201 1.10156 10.914 1.10156 9.98555Z" fill="#fff"/>
<path fill-rule="evenodd" clip-rule="evenodd" d="M9.12058 9.05098C8.68746 9.05098 8.28486 9.43985 8.28486 9.98555C8.28486 10.5312 8.68746 10.9201 9.12058 10.9201C9.5537 10.9201 9.95629 10.5312 9.95629 9.98555C9.95629 9.43985 9.5537 9.05098 9.12058 9.05098ZM7.48486 9.98555C7.48486 9.05712 8.18877 8.25098 9.12058 8.25098C10.0524 8.25098 10.7563 9.05712 10.7563 9.98555C10.7563 10.914 10.0524 11.7201 9.12058 11.7201C8.18877 11.7201 7.48486 10.914 7.48486 9.98555Z" fill="#fff"/>
<path fill-rule="evenodd" clip-rule="evenodd" d="M7.55566 2.74072H8.84552C9.16225 2.74072 9.42575 2.92083 9.58274 3.16736L11.4113 5.34302C11.7505 5.7477 11.9523 6.28539 11.8885 6.84169L11.8726 6.98028L11.8701 6.98281L11.6059 9.14547C11.6058 9.14567 11.6059 9.14526 11.6059 9.14547C11.5528 9.58723 11.2239 10.0488 10.7003 10.0488H10.1118V9.24882H10.7003C10.701 9.24882 10.7037 9.24882 10.7095 9.24603C10.7161 9.24291 10.7277 9.23568 10.7416 9.22054C10.7703 9.18941 10.8018 9.13215 10.8115 9.05062L10.8116 9.04953L11.0903 6.76877C11.0911 6.75927 11.0924 6.74784 11.0945 6.7351C11.095 6.73228 11.0956 6.72878 11.0963 6.72469C11.1225 6.4272 11.0134 6.11384 10.7987 5.85752C10.7986 5.85745 10.7988 5.85759 10.7987 5.85752L8.9294 3.6334L8.91227 3.60415C8.89321 3.57161 8.87396 3.55497 8.86216 3.5475C8.85129 3.54061 8.84599 3.54071 8.84554 3.54072L7.55566 3.54072V2.74072ZM11.8888 6.8055C11.8888 6.80445 11.8888 6.80627 11.8888 6.81025V6.8055Z" fill="#fff"/>
</svg>
