<svg width="12" height="12" viewBox="0 0 12 12" fill="none" xmlns="http://www.w3.org/2000/svg">
<path d="M9.78602 11.4863H2.23247C1.66317 11.4863 1.20288 11.026 1.20288 10.4567V1.52959C1.20288 0.960287 1.66317 0.5 2.23247 0.5H9.78602C10.3553 0.5 10.8156 0.960287 10.8156 1.52959V10.4567C10.818 11.026 10.3553 11.4863 9.78602 11.4863Z" stroke="#1E398D" stroke-width="0.8" stroke-miterlimit="10"/>
<path d="M1.19995 3.24707H10.8151" stroke="#1E398D" stroke-width="0.8" stroke-miterlimit="10"/>
<path d="M3.26154 2.30482C3.49969 2.30482 3.69275 2.11175 3.69275 1.8736C3.69275 1.63544 3.49969 1.44238 3.26154 1.44238C3.02338 1.44238 2.83032 1.63544 2.83032 1.8736C2.83032 2.11175 3.02338 2.30482 3.26154 2.30482Z" stroke="#1E398D" stroke-width="0.5" stroke-miterlimit="10"/>
<path d="M8.75348 2.30482C8.99164 2.30482 9.1847 2.11175 9.1847 1.8736C9.1847 1.63544 8.99164 1.44238 8.75348 1.44238C8.51533 1.44238 8.32227 1.63544 8.32227 1.8736C8.32227 2.11175 8.51533 2.30482 8.75348 2.30482Z" stroke="#1E398D" stroke-width="0.5" stroke-miterlimit="10"/>
<path d="M3.60937 6.55405C3.62554 6.25762 3.73872 6.04203 4.12678 6.04203C4.45015 6.04203 4.59567 6.23606 4.59567 6.45703C4.59567 6.79658 4.41782 7.01217 4.01359 7.01217H3.62554V7.57808H4.04593C4.62801 7.57808 4.76275 7.84756 4.76275 8.12243C4.76275 8.44581 4.56873 8.70451 4.17528 8.70451C3.8034 8.70451 3.60937 8.50509 3.5932 8.14399H2.75781C2.75781 8.38113 2.82249 9.41594 4.19684 9.41594C5.15619 9.41594 5.60892 8.74762 5.60892 8.16554C5.60892 7.53496 5.17775 7.27087 4.7897 7.22775C5.0484 7.16846 5.42568 6.8882 5.42568 6.3708C5.42568 5.78872 5.02145 5.31982 4.17528 5.31982C2.89255 5.31982 2.82788 6.33307 2.82788 6.55405H3.60937Z" fill="#1E398D"/>
<path d="M6.90883 6.72652C6.90883 6.25223 7.16753 6.04203 7.51786 6.04203C7.88435 6.04203 8.12689 6.24145 8.12689 6.72113V8.00925C8.12689 8.50509 7.88974 8.69373 7.52325 8.69373C7.16214 8.69373 6.90883 8.47814 6.90883 8.00386V6.72652ZM6.03032 7.96074C6.03032 8.92548 6.67169 9.41055 7.52864 9.41055C8.41254 9.41055 9.00001 8.98477 9.00001 7.98769V6.74268C9.00001 5.7456 8.41254 5.31982 7.52325 5.31982C6.6663 5.31982 6.03032 5.81028 6.03032 6.76963V7.96074Z" fill="#1E398D"/>
</svg>
