<svg width="24" height="24" viewBox="0 0 24 24" fill="none" xmlns="http://www.w3.org/2000/svg">
<g clip-path="url(#clip0)">
<rect width="24" height="24" fill="white"/>
<path fill-rule="evenodd" clip-rule="evenodd" d="M1.2002 5.59619H22.406V21.0901L22.406 21.0935C22.3992 22.6987 21.1002 24.0001 19.491 24.0001H4.11024C2.50169 24.0001 1.2002 22.6986 1.2002 21.0901V5.59619ZM2.82732 7.22331V21.0901C2.82732 21.8 3.40033 22.373 4.11024 22.373H19.491C20.1998 22.373 20.775 21.8008 20.7789 21.0882V7.22331H2.82732Z" fill="#1E398D"/>
<path d="M16.7582 14.5824L8.466 10.3648C8.10589 10.1822 7.71619 10.567 7.90364 10.9271L12.1213 19.2144C12.2791 19.5301 12.733 19.5153 12.876 19.1996L14.0106 16.7035C14.05 16.6098 14.124 16.5358 14.2178 16.4964L16.7434 15.3371C17.0591 15.1891 17.069 14.7402 16.7582 14.5824Z" stroke="#1E398D" stroke-width="1.6" stroke-miterlimit="10"/>
<path fill-rule="evenodd" clip-rule="evenodd" d="M9.04627 0.623201C9.7788 0.211541 10.6878 0 11.7904 0C12.8931 0 13.8025 0.211563 14.5357 0.622908C15.2759 1.03815 15.784 1.62768 16.124 2.29331C16.7791 3.57587 16.8166 5.16647 16.8068 6.41383L15.1797 6.40112C15.1897 5.12283 15.126 3.91647 14.675 3.03349C14.4619 2.61634 14.1656 2.28096 13.7396 2.04197C13.3067 1.79909 12.6881 1.62712 11.7904 1.62712C10.8927 1.62712 10.2751 1.79911 9.84342 2.04168C9.41882 2.28029 9.12399 2.61512 8.91229 3.03185C8.46394 3.91449 8.40343 5.12055 8.41592 6.39953L6.78888 6.41542C6.7767 5.16875 6.80993 3.57785 7.46161 2.29495C7.79994 1.62891 8.3067 1.03882 9.04627 0.623201Z" fill="#1E398D"/>
</g>
<defs>
<clipPath id="clip0">
<rect width="24" height="24" fill="white"/>
</clipPath>
</defs>
</svg>
