<svg width="12" height="12" viewBox="0 0 12 12" fill="none" xmlns="http://www.w3.org/2000/svg">
<path fill-rule="evenodd" clip-rule="evenodd" d="M4.44322 9.60094L3.37589 11.6065L2.66968 11.2306L3.737 9.2251L4.44322 9.60094Z" fill="#1E398D"/>
<path fill-rule="evenodd" clip-rule="evenodd" d="M0 7.52553L2.16627 6.85352L2.4033 7.61759L0.237032 8.28961L0 7.52553Z" fill="#1E398D"/>
<path fill-rule="evenodd" clip-rule="evenodd" d="M2.35382 4.75142L0.356201 3.69728L0.729567 2.98975L2.72718 4.04389L2.35382 4.75142Z" fill="#1E398D"/>
<path fill-rule="evenodd" clip-rule="evenodd" d="M8.98433 1.02717L7.93019 3.02479L7.22266 2.65142L8.2768 0.653809L8.98433 1.02717Z" fill="#1E398D"/>
<path fill-rule="evenodd" clip-rule="evenodd" d="M11.6762 4.75614L9.51515 5.42289L9.2793 4.65845L11.4403 3.9917L11.6762 4.75614Z" fill="#1E398D"/>
<path fill-rule="evenodd" clip-rule="evenodd" d="M4.35102 2.6904L3.68164 0.537305L4.44557 0.299805L5.11495 2.4529L4.35102 2.6904Z" fill="#1E398D"/>
<path fill-rule="evenodd" clip-rule="evenodd" d="M4.85132 4.2676C4.85138 4.26764 4.85125 4.26757 4.85132 4.2676L10.9989 7.3941C11.5218 7.66459 11.51 8.42011 10.9753 8.67245L10.9713 8.67433L9.12795 9.51949L8.30155 11.3381C8.05523 11.8788 7.29138 11.8987 7.01993 11.3679L3.89287 5.22186C3.5903 4.61673 4.22991 3.95102 4.85132 4.2676ZM4.73027 5.10356L7.64905 10.8402L8.41387 9.15716L8.41485 9.15502C8.48178 9.01 8.60024 8.87752 8.76838 8.80427L10.4715 8.02339L4.73027 5.10356Z" fill="#1E398D"/>
</svg>
