<svg width="12" height="12" viewBox="0 0 12 12" fill="none" xmlns="http://www.w3.org/2000/svg">
<g clip-path="url(#clip0)">
<path fill-rule="evenodd" clip-rule="evenodd" d="M4.08604 12.0001H1.97485V11.1543H4.08604V12.0001ZM5.04567 12.0001V11.1543H7.15685V12.0001H5.04567ZM10.2277 12.0001H8.11648V11.1543H10.2277V12.0001Z" fill="#fff"/>
<path fill-rule="evenodd" clip-rule="evenodd" d="M1.76636 4.36956C1.76636 1.96126 3.69549 0 6.08676 0C8.47803 0 10.4072 1.96126 10.4072 4.36956C10.4072 5.45155 10.0153 6.43922 9.37382 7.20031L9.36733 7.208L6.08676 10.7443L2.80621 7.208L2.79972 7.20031C2.15823 6.43922 1.76636 5.45155 1.76636 4.36956ZM6.08676 0.845775C4.17258 0.845775 2.61213 2.41833 2.61213 4.36956C2.61213 5.24016 2.92544 6.03369 3.44013 6.64774L6.08676 9.50066L8.73341 6.64774C9.2481 6.03369 9.56141 5.24016 9.56141 4.36956C9.56141 2.41833 8.00095 0.845775 6.08676 0.845775Z" fill="#fff"/>
<path fill-rule="evenodd" clip-rule="evenodd" d="M3.77368 4.21501C3.77368 2.93705 4.80836 1.90234 6.08634 1.90234C7.36467 1.90234 8.39901 2.93986 8.39901 4.21501C8.39901 5.49299 7.36431 6.52768 6.08634 6.52768C4.80836 6.52768 3.77368 5.49298 3.77368 4.21501ZM6.08634 2.74812C5.27548 2.74812 4.61946 3.40415 4.61946 4.21501C4.61946 5.02588 5.27548 5.68191 6.08634 5.68191C6.8972 5.68191 7.55323 5.02588 7.55323 4.21501C7.55323 3.40625 6.89684 2.74812 6.08634 2.74812Z" fill="#fff"/>
</g>
<defs>
<clipPath id="clip0">
<rect width="12" height="12" fill="white"/>
</clipPath>
</defs>
</svg>
