<svg width="12" height="12" viewBox="0 0 12 12" fill="none" xmlns="http://www.w3.org/2000/svg">
<path fill-rule="evenodd" clip-rule="evenodd" d="M1.31821 1.13424C1.76087 0.69158 2.47608 0.69158 2.91874 1.13424L4.14714 2.36264C4.5898 2.8053 4.5898 3.5205 4.14714 3.96317L3.45331 4.65698L3.61463 5.04763C3.61464 5.04764 3.61463 5.04762 3.61463 5.04763C4.211 6.49145 5.36508 7.63575 6.81576 8.21748L7.14135 8.34859L7.83696 7.65299C8.27962 7.21033 8.99482 7.21033 9.43749 7.65299L10.6659 8.88138C11.1085 9.32405 11.1085 10.0392 10.6659 10.4819L9.92313 11.2247C9.92172 11.226 9.92021 11.2272 9.91879 11.2286L9.78371 11.3641C9.46193 11.6868 9.00856 11.7857 8.56451 11.7827C8.11469 11.7797 7.60992 11.6727 7.10436 11.5119C6.09114 11.1896 4.99183 10.6241 4.16032 10.0831C3.60373 9.72387 3.10704 9.28669 2.67227 8.79496C2.67207 8.79474 2.67246 8.79518 2.67227 8.79496L2.36007 8.445C1.76821 7.84751 0.993466 6.60685 0.500496 5.38662C0.251567 4.77045 0.0630266 4.13213 0.0130585 3.56146C-0.0357187 3.0044 0.0407327 2.41947 0.43821 2.02199L0.496977 1.96322C0.523488 1.93186 0.551993 1.90046 0.582725 1.86973C0.582725 1.86973 0.582725 1.86973 0.582725 1.86973L1.31821 1.13424ZM0.873113 2.79775C0.810974 2.95923 0.78323 3.18584 0.810009 3.49168C0.850363 3.95255 1.0086 4.50859 1.24225 5.08695C1.71218 6.25016 2.44098 7.39342 2.93456 7.88816L2.94244 7.89607L3.27108 8.26446C3.66181 8.70647 4.10407 9.09472 4.59473 9.41136L4.59601 9.41218C5.38249 9.92397 6.41708 10.4538 7.34684 10.7495C7.81289 10.8977 8.23199 10.9804 8.56992 10.9827C8.76735 10.984 8.91679 10.9582 9.02818 10.9159L9.24513 10.7506C9.29191 10.7149 9.33248 10.6818 9.36863 10.6478L10.1002 9.91623C10.2304 9.78598 10.2304 9.57731 10.1002 9.44707L8.8718 8.21867C8.74156 8.08843 8.53288 8.08843 8.40264 8.21867L7.33308 9.28824L6.51801 8.96C4.86675 8.29785 3.5537 6.99567 2.87522 5.35304L2.51008 4.46884L3.58145 3.39748C3.58145 3.39748 3.58145 3.39748 3.58145 3.39748C3.71169 3.26724 3.71169 3.05857 3.58145 2.92832L2.35305 1.69993C2.22281 1.56969 2.01414 1.56969 1.88389 1.69993C1.88389 1.69993 1.88389 1.69993 1.88389 1.69993L1.14841 2.43542C1.11882 2.465 1.08849 2.50161 1.05486 2.54784L0.873113 2.79775Z" fill="#1E398D"/>
<path fill-rule="evenodd" clip-rule="evenodd" d="M5.54688 0C9.00147 0 11.7998 2.80115 11.7998 6.25293H10.9998C10.9998 3.24275 8.55941 0.8 5.54688 0.8V0Z" fill="#1E398D"/>
<path fill-rule="evenodd" clip-rule="evenodd" d="M6.32663 1.53613C8.33805 1.86573 9.92634 3.44814 10.2617 5.4573L9.47258 5.589C9.19371 3.91813 7.87103 2.59988 6.19727 2.3256L6.32663 1.53613Z" fill="#1E398D"/>
</svg>
