<svg width="24" height="24" viewBox="0 0 24 24" fill="none" xmlns="http://www.w3.org/2000/svg">
<rect width="24" height="24" fill="white"/>
<path fill-rule="evenodd" clip-rule="evenodd" d="M14.4999 20.8555H9.4917V19.8555H14.4999V20.8555Z" fill="#1E398D"/>
<path fill-rule="evenodd" clip-rule="evenodd" d="M8.75371 3.00039C8.21552 3.00039 7.78115 3.43658 7.78115 3.97295V20.4785C7.78115 21.0167 8.21734 21.4511 8.75371 21.4511H15.2384C15.7696 21.4511 16.2076 21.017 16.2109 20.4765V3.97295C16.2109 3.43476 15.7747 3.00039 15.2384 3.00039H8.75371ZM6.18115 3.97295C6.18115 2.55553 7.32927 1.40039 8.75371 1.40039H15.2384C16.6558 1.40039 17.8109 2.54851 17.8109 3.97295V20.4785L17.8109 20.4821C17.8045 21.8947 16.6604 23.0511 15.2384 23.0511H8.75371C7.33629 23.0511 6.18115 21.903 6.18115 20.4785V3.97295Z" fill="#1E398D"/>
<path fill-rule="evenodd" clip-rule="evenodd" d="M17.8086 3.89648L17.8086 19.288H6.18325L6.18325 3.89648L17.8086 3.89648ZM16.2086 5.49648L7.78325 5.49648L7.78325 17.688H16.2086L16.2086 5.49648Z" fill="#1E398D"/>
<path fill-rule="evenodd" clip-rule="evenodd" d="M17.0063 19.2895H6.98535V17.6895H17.0063V19.2895Z" fill="#1E398D"/>
<path fill-rule="evenodd" clip-rule="evenodd" d="M19.4595 12.1944C19.4595 11.3214 19.255 10.4984 18.8905 9.77325L20.3201 9.05469C20.7955 10.0004 21.0595 11.0693 21.0595 12.1944C21.0595 13.4259 20.7402 14.5839 20.1863 15.5869L18.7856 14.8135C19.2131 14.0395 19.4595 13.1465 19.4595 12.1944Z" fill="#1E398D"/>
<path fill-rule="evenodd" clip-rule="evenodd" d="M22.1998 12.1905C22.1998 10.5133 21.7523 8.93998 20.9718 7.5863L22.3579 6.78711C23.2749 8.37738 23.7998 10.2254 23.7998 12.1905C23.7998 14.1653 23.27 16.018 22.3487 17.6123L20.9634 16.8118C21.7484 15.4533 22.1998 13.8758 22.1998 12.1905Z" fill="#1E398D"/>
<path fill-rule="evenodd" clip-rule="evenodd" d="M2.94092 12.1944C2.94092 11.0693 3.20496 10.0004 3.68035 9.05469L5.10991 9.77325C4.74543 10.4984 4.54092 11.3214 4.54092 12.1944C4.54092 13.1465 4.78736 14.0395 5.21479 14.8135L3.81417 15.5869C3.26028 14.5839 2.94092 13.4259 2.94092 12.1944Z" fill="#1E398D"/>
<path fill-rule="evenodd" clip-rule="evenodd" d="M0.200195 12.1905C0.200195 10.2254 0.725174 8.37738 1.64209 6.78711L3.02819 7.5863C2.24769 8.93998 1.8002 10.5133 1.8002 12.1905C1.8002 13.8758 2.25168 15.4533 3.03665 16.8118L1.65131 17.6123C0.73003 16.018 0.200195 14.1653 0.200195 12.1905Z" fill="#1E398D"/>
</svg>
