<svg width="24" height="24" viewBox="0 0 24 24" fill="none" xmlns="http://www.w3.org/2000/svg">
<rect width="24" height="24" fill="white"/>
<path fill-rule="evenodd" clip-rule="evenodd" d="M4.88884 15.4841L4.8992 1.38451L3.25561 1.3833L3.24512 15.6608L3.26239 15.7439C3.58629 17.3013 4.95285 18.4214 6.54887 18.4214H20.6946V16.7778H6.54887C5.7616 16.7778 5.0819 16.2438 4.88884 15.4841Z" fill="#1E398D"/>
<path fill-rule="evenodd" clip-rule="evenodd" d="M0 1.82166L0.146062 0.18457L21.4447 2.08484C22.746 2.10969 23.7217 3.31582 23.4486 4.60433L21.9267 11.8227C21.9267 11.823 21.9268 11.8224 21.9267 11.8227C21.7447 12.6962 21.0289 13.3462 20.1598 13.4655L20.1343 13.469L4.46081 15.1214L4.28844 13.4869L19.9459 11.8357C20.1355 11.8057 20.2809 11.6644 20.3176 11.4881L21.8405 4.26443C21.8983 3.99178 21.6879 3.72804 21.4037 3.72804H21.3671L0 1.82166Z" fill="#1E398D"/>
<path fill-rule="evenodd" clip-rule="evenodd" d="M6.25719 20.4439C5.86413 20.4439 5.43656 20.8094 5.43656 21.4001C5.43656 21.9908 5.86413 22.3563 6.25719 22.3563C6.65026 22.3563 7.07782 21.9908 7.07782 21.4001C7.07782 20.8094 6.65026 20.4439 6.25719 20.4439ZM3.79297 21.4001C3.79297 20.0268 4.83609 18.8003 6.25719 18.8003C7.6783 18.8003 8.72142 20.0268 8.72142 21.4001C8.72142 22.7733 7.6783 23.9999 6.25719 23.9999C4.83609 23.9999 3.79297 22.7733 3.79297 21.4001Z" fill="#1E398D"/>
<path fill-rule="evenodd" clip-rule="evenodd" d="M18.5467 20.4439C18.1537 20.4439 17.7261 20.8094 17.7261 21.4001C17.7261 21.9908 18.1537 22.3563 18.5467 22.3563C18.9398 22.3563 19.3674 21.9908 19.3674 21.4001C19.3674 20.8094 18.9398 20.4439 18.5467 20.4439ZM16.0825 21.4001C16.0825 20.0268 17.1256 18.8003 18.5467 18.8003C19.9679 18.8003 21.011 20.0268 21.011 21.4001C21.011 22.7733 19.9679 23.9999 18.5467 23.9999C17.1256 23.9999 16.0825 22.7733 16.0825 21.4001Z" fill="#1E398D"/>
<path d="M16.5123 7.53467H7.3999" stroke="#1E398D" stroke-width="1.6" stroke-miterlimit="10"/>
<path d="M12.9229 4.3999L13.3262 4.75674L16.512 7.53391L12.9229 10.8386" stroke="#1E398D" stroke-width="1.6" stroke-miterlimit="10"/>
</svg>
