<svg width="24" height="24" viewBox="0 0 24 24" fill="none" xmlns="http://www.w3.org/2000/svg">
<g clip-path="url(#clip0)">
<rect width="24" height="24" fill="white"/>
<path fill-rule="evenodd" clip-rule="evenodd" d="M4.88884 15.4846L4.8992 1.385L3.25561 1.38379L3.24512 15.6613L3.26239 15.7444C3.58629 17.3018 4.95285 18.4219 6.54887 18.4219H20.6946V16.7783H6.54887C5.7616 16.7783 5.0819 16.2443 4.88884 15.4846Z" fill="#1E398D"/>
<path fill-rule="evenodd" clip-rule="evenodd" d="M0 1.82166L0.146062 0.18457L21.4447 2.08484C22.746 2.10969 23.7217 3.31582 23.4486 4.60433L21.9267 11.8227C21.9267 11.823 21.9268 11.8224 21.9267 11.8227C21.7447 12.6962 21.0289 13.3462 20.1598 13.4655L20.1343 13.469L4.46081 15.1214L4.28844 13.4869L19.9459 11.8357C20.1355 11.8057 20.2809 11.6644 20.3176 11.4881L21.8405 4.26443C21.8983 3.99178 21.6879 3.72804 21.4037 3.72804H21.3671L0 1.82166Z" fill="#1E398D"/>
<path fill-rule="evenodd" clip-rule="evenodd" d="M6.25719 20.4444C5.86413 20.4444 5.43656 20.8099 5.43656 21.4006C5.43656 21.9912 5.86413 22.3568 6.25719 22.3568C6.65026 22.3568 7.07782 21.9912 7.07782 21.4006C7.07782 20.8099 6.65026 20.4444 6.25719 20.4444ZM3.79297 21.4006C3.79297 20.0273 4.83609 18.8008 6.25719 18.8008C7.6783 18.8008 8.72142 20.0273 8.72142 21.4006C8.72142 22.7738 7.6783 24.0004 6.25719 24.0004C4.83609 24.0004 3.79297 22.7738 3.79297 21.4006Z" fill="#1E398D"/>
<path fill-rule="evenodd" clip-rule="evenodd" d="M18.5467 20.4444C18.1537 20.4444 17.7261 20.8099 17.7261 21.4006C17.7261 21.9912 18.1537 22.3568 18.5467 22.3568C18.9398 22.3568 19.3674 21.9912 19.3674 21.4006C19.3674 20.8099 18.9398 20.4444 18.5467 20.4444ZM16.0825 21.4006C16.0825 20.0273 17.1256 18.8008 18.5467 18.8008C19.9679 18.8008 21.011 20.0273 21.011 21.4006C21.011 22.7738 19.9679 24.0004 18.5467 24.0004C17.1256 24.0004 16.0825 22.7738 16.0825 21.4006Z" fill="#1E398D"/>
</g>
<defs>
<clipPath id="clip0">
<rect width="24" height="24" fill="white"/>
</clipPath>
</defs>
</svg>
