<svg width="12" height="12" viewBox="0 0 12 12" fill="none" xmlns="http://www.w3.org/2000/svg">
<g clip-path="url(#clip0)">
<path fill-rule="evenodd" clip-rule="evenodd" d="M-0.00439453 1.84555C1.69546 0.668337 3.73941 0 5.99256 0C8.25036 0 10.2987 0.668185 12.003 1.8399L11.5498 2.49914C9.9783 1.41874 8.08788 0.8 5.99256 0.8C3.90235 0.8 2.01727 1.41859 0.451076 2.50324L-0.00439453 1.84555Z" fill="#1E398D"/>
<path fill-rule="evenodd" clip-rule="evenodd" d="M1.46558 4.18522C2.78499 3.25779 4.32467 2.73779 5.99997 2.73779C7.67484 2.73779 9.21408 3.25508 10.5356 4.1771L10.0779 4.8332C8.88411 4.00033 7.5034 3.53779 5.99997 3.53779C4.49696 3.53779 3.11669 4.00249 1.92562 4.8397L1.46558 4.18522Z" fill="#1E398D"/>
<path fill-rule="evenodd" clip-rule="evenodd" d="M6.00704 6.31123C5.05595 6.31123 4.16348 6.59897 3.34981 7.13081L2.91211 6.46117C3.84358 5.85233 4.88638 5.51123 6.00704 5.51123C7.12422 5.51123 8.16134 5.84681 9.09001 6.44511L8.65673 7.11762C7.84513 6.59474 6.95674 6.31123 6.00704 6.31123Z" fill="#1E398D"/>
<path fill-rule="evenodd" clip-rule="evenodd" d="M4.06689 9.86675C4.06689 8.80045 4.93049 7.93359 6.00005 7.93359C7.06676 7.93359 7.93321 8.80004 7.93321 9.86675C7.93321 10.933 7.06961 11.7999 6.00005 11.7999C4.93376 11.7999 4.06689 10.9363 4.06689 9.86675ZM6.00005 8.73359C5.37315 8.73359 4.86689 9.24145 4.86689 9.86675C4.86689 10.4937 5.37476 10.9999 6.00005 10.9999C6.62696 10.9999 7.13321 10.492 7.13321 9.86675C7.13321 9.24187 6.62493 8.73359 6.00005 8.73359Z" fill="#1E398D"/>
</g>
<defs>
<clipPath id="clip0">
<rect width="12" height="12" fill="white"/>
</clipPath>
</defs>
</svg>
