<svg width="12" height="12" viewBox="0 0 12 12" fill="none" xmlns="http://www.w3.org/2000/svg">
<path d="M9.70577 2.71924H7.66089V3.23293H9.70577V2.71924Z" fill="#108600"/>
<path d="M6.92989 2.71924H4.88501V3.23293H6.92989V2.71924Z" fill="#108600"/>
<path d="M4.15377 2.71924H2.10889V3.23293H4.15377V2.71924Z" fill="#108600"/>
<path fill-rule="evenodd" clip-rule="evenodd" d="M2.09937 7.00146H9.90086V11.595H9.10086V7.80146H2.89937V11.595H2.09937V7.00146Z" fill="#108600"/>
<path fill-rule="evenodd" clip-rule="evenodd" d="M6.76685 11.5953V7.48828H7.56685V11.5953H6.76685Z" fill="#108600"/>
<path fill-rule="evenodd" clip-rule="evenodd" d="M4.43311 11.5953V7.48828H5.23311V11.5953H4.43311Z" fill="#108600"/>
<path fill-rule="evenodd" clip-rule="evenodd" d="M1.45702 0.8C1.09448 0.8 0.8 1.09323 0.8 1.45702V10.5429C0.8 10.9054 1.09323 11.1999 1.45702 11.1999H10.5429C10.9048 11.1999 11.1999 10.9048 11.1999 10.5429V1.45702C11.1999 1.09448 10.9067 0.8 10.5429 0.8H1.45702ZM0 1.45702C0 0.650183 0.65387 0 1.45702 0H10.5429C11.3497 0 11.9999 0.65387 11.9999 1.45702V10.5429C11.9999 11.3467 11.3467 11.9999 10.5429 11.9999H1.45702C0.650183 11.9999 0 11.3461 0 10.5429V1.45702Z" fill="#108600"/>
<path fill-rule="evenodd" clip-rule="evenodd" d="M0.399902 4.89941H11.5998V5.69941H0.399902V4.89941Z" fill="#108600"/>
</svg>
