<svg width="12" height="12" viewBox="0 0 12 12" fill="none" xmlns="http://www.w3.org/2000/svg">
<path fill-rule="evenodd" clip-rule="evenodd" d="M2.23424 0.5H7.72646C8.05438 0.5 8.32523 0.693085 8.47988 0.953042L11.5399 5.82459C11.7522 6.18555 11.8372 6.63018 11.785 7.05937C11.785 7.05938 11.785 7.05936 11.785 7.05937L11.5052 9.36156C11.5052 9.36181 11.5052 9.36131 11.5052 9.36156C11.4525 9.80648 11.1248 10.2702 10.5996 10.2702H10.0114V9.47016H10.5996C10.6004 9.47017 10.6029 9.47017 10.6085 9.46749C10.6148 9.46448 10.6262 9.45737 10.6401 9.44221C10.6686 9.4111 10.7007 9.35285 10.7107 9.26809L10.7108 9.26656L10.9909 6.96284C11.0231 6.69754 10.9682 6.43345 10.8529 6.23487L7.79294 1.36346C7.7739 1.33094 7.75483 1.31422 7.74305 1.30676C7.7322 1.29988 7.72692 1.29999 7.72649 1.3L2.23521 1.3C1.89764 1.30185 1.61679 1.55547 1.58004 1.88925C1.58002 1.88935 1.58005 1.88914 1.58004 1.88925L0.803541 9.08711C0.788872 9.2228 0.821494 9.3399 0.865753 9.41168C0.893054 9.45596 0.913743 9.46914 0.92139 9.47252H1.40593V10.2725H0.91648C0.578495 10.2725 0.326903 10.062 0.184787 9.83154C0.0408102 9.59803 -0.0242151 9.30092 0.0081559 9.00131C0.00815912 9.00128 0.00815269 9.00134 0.0081559 9.00131L0.784692 1.80306C0.865706 1.06421 1.48807 0.50324 2.2325 0.500004L2.23424 0.5Z" fill="#1E398D"/>
<path fill-rule="evenodd" clip-rule="evenodd" d="M3.87476 9.45312H7.78567V10.2531H3.87476V9.45312Z" fill="#1E398D"/>
<path fill-rule="evenodd" clip-rule="evenodd" d="M2.5686 5.10742H8.93384V5.90742H2.5686V5.10742Z" fill="#1E398D"/>
<path fill-rule="evenodd" clip-rule="evenodd" d="M2.63901 9.24385C2.20609 9.24385 1.80366 9.63255 1.80366 10.178C1.80366 10.7235 2.20609 11.1122 2.63901 11.1122C3.07193 11.1122 3.47436 10.7235 3.47436 10.178C3.47436 9.63255 3.07193 9.24385 2.63901 9.24385ZM1.00366 10.178C1.00366 9.24981 1.7074 8.44385 2.63901 8.44385C3.57062 8.44385 4.27436 9.24981 4.27436 10.178C4.27436 11.1062 3.57062 11.9122 2.63901 11.9122C1.7074 11.9122 1.00366 11.1062 1.00366 10.178Z" fill="#1E398D"/>
<path fill-rule="evenodd" clip-rule="evenodd" d="M9.02085 9.24385C8.58793 9.24385 8.1855 9.63255 8.1855 10.178C8.1855 10.7235 8.58793 11.1122 9.02085 11.1122C9.45377 11.1122 9.8562 10.7235 9.8562 10.178C9.8562 9.63255 9.45377 9.24385 9.02085 9.24385ZM7.3855 10.178C7.3855 9.24981 8.08924 8.44385 9.02085 8.44385C9.95246 8.44385 10.6562 9.24981 10.6562 10.178C10.6562 11.1062 9.95246 11.9122 9.02085 11.9122C8.08924 11.9122 7.3855 11.1062 7.3855 10.178Z" fill="#1E398D"/>
<path fill-rule="evenodd" clip-rule="evenodd" d="M6.44429 3.86672L6.16191 3.61964L6.68871 3.01758L9.53299 5.49887L6.69632 8.11201L6.1543 7.52361L8.33453 5.51518L6.44429 3.86672Z" fill="#1E398D"/>
</svg>
