<svg width="24" height="24" viewBox="0 0 24 24" fill="none" xmlns="http://www.w3.org/2000/svg">
<rect width="24" height="24" fill="white"/>
<path d="M19.572 22.9727H4.46494C3.32634 22.9727 2.40576 22.0521 2.40576 20.9135V3.05918C2.40576 1.92057 3.32634 1 4.46494 1H19.572C20.7107 1 21.6312 1.92057 21.6312 3.05918V20.9135C21.6361 22.0521 20.7107 22.9727 19.572 22.9727Z" stroke="#1E398D" stroke-width="1.6" stroke-miterlimit="10"/>
<path d="M2.3999 6.49414H21.6302" stroke="#1E398D" stroke-width="1.6" stroke-miterlimit="10"/>
<path d="M6.52308 4.61012C6.99939 4.61012 7.38551 4.22399 7.38551 3.74769C7.38551 3.27138 6.99939 2.88525 6.52308 2.88525C6.04677 2.88525 5.66064 3.27138 5.66064 3.74769C5.66064 4.22399 6.04677 4.61012 6.52308 4.61012Z" stroke="#1E398D" stroke-miterlimit="10"/>
<path d="M17.507 4.61012C17.9833 4.61012 18.3694 4.22399 18.3694 3.74769C18.3694 3.27138 17.9833 2.88525 17.507 2.88525C17.0307 2.88525 16.6445 3.27138 16.6445 3.74769C16.6445 4.22399 17.0307 4.61012 17.507 4.61012Z" stroke="#1E398D" stroke-miterlimit="10"/>
<path d="M7.21875 13.1086C7.25108 12.5157 7.47745 12.0846 8.25355 12.0846C8.90031 12.0846 9.19135 12.4726 9.19135 12.9146C9.19135 13.5936 8.83563 14.0248 8.02719 14.0248H7.25108V15.1566H8.09186C9.25602 15.1566 9.5255 15.6956 9.5255 16.2453C9.5255 16.8921 9.13745 17.4095 8.35057 17.4095C7.6068 17.4095 7.21875 17.0107 7.18641 16.2885H5.51562C5.51562 16.7627 5.64498 18.8324 8.39368 18.8324C10.3124 18.8324 11.2178 17.4957 11.2178 16.3316C11.2178 15.0704 10.3555 14.5422 9.5794 14.456C10.0968 14.3374 10.8514 13.7769 10.8514 12.7421C10.8514 11.5779 10.0429 10.6401 8.35057 10.6401C5.78511 10.6401 5.65576 12.6666 5.65576 13.1086H7.21875Z" fill="#1E398D"/>
<path d="M13.8177 13.4535C13.8177 12.5049 14.3351 12.0846 15.0357 12.0846C15.7687 12.0846 16.2538 12.4834 16.2538 13.4427V16.019C16.2538 17.0107 15.7795 17.3879 15.0465 17.3879C14.3243 17.3879 13.8177 16.9568 13.8177 16.0082V13.4535ZM12.0606 15.922C12.0606 17.8515 13.3434 18.8216 15.0573 18.8216C16.8251 18.8216 18 17.97 18 15.9759V13.4859C18 11.4917 16.8251 10.6401 15.0465 10.6401C13.3326 10.6401 12.0606 11.621 12.0606 13.5398V15.922Z" fill="#1E398D"/>
</svg>
