<svg width="12" height="12" viewBox="0 0 12 12" fill="none" xmlns="http://www.w3.org/2000/svg">
<path d="M9.78602 11.4863H2.23247C1.66317 11.4863 1.20288 11.026 1.20288 10.4567V1.52959C1.20288 0.960287 1.66317 0.5 2.23247 0.5H9.78602C10.3553 0.5 10.8156 0.960287 10.8156 1.52959V10.4567C10.818 11.026 10.3553 11.4863 9.78602 11.4863Z" stroke="#1E398D" stroke-width="0.8" stroke-miterlimit="10"/>
<path d="M1.19995 3.24707H10.8151" stroke="#1E398D" stroke-width="0.8" stroke-miterlimit="10"/>
<path d="M3.26154 2.30482C3.49969 2.30482 3.69275 2.11175 3.69275 1.8736C3.69275 1.63544 3.49969 1.44238 3.26154 1.44238C3.02338 1.44238 2.83032 1.63544 2.83032 1.8736C2.83032 2.11175 3.02338 2.30482 3.26154 2.30482Z" stroke="#1E398D" stroke-width="0.5" stroke-miterlimit="10"/>
<path d="M8.75348 2.30482C8.99164 2.30482 9.1847 2.11175 9.1847 1.8736C9.1847 1.63544 8.99164 1.44238 8.75348 1.44238C8.51533 1.44238 8.32227 1.63544 8.32227 1.8736C8.32227 2.11175 8.51533 2.30482 8.75348 2.30482Z" stroke="#1E398D" stroke-width="0.5" stroke-miterlimit="10"/>
<path d="M2.3811 8.29442C2.40878 8.38666 2.74546 9.00007 3.65405 9.00007C4.48424 9.00007 4.87627 8.44662 4.87627 7.99002C4.87627 7.30742 4.3182 7.09526 3.89389 6.93383C3.52953 6.81392 3.22974 6.72629 3.24357 6.41728C3.24819 6.22818 3.43267 6.06675 3.67712 6.06675C4.12449 6.06675 4.24441 6.30658 4.28131 6.52335L4.85321 6.21895C4.75636 5.93761 4.46118 5.49023 3.68173 5.49023C3.04064 5.49023 2.53792 5.87765 2.52408 6.44495C2.51024 7.13216 2.99913 7.34432 3.50647 7.51958C3.82932 7.62566 4.17523 7.69945 4.17523 7.9854C4.17523 8.18373 4.00919 8.39588 3.67712 8.39588C3.15594 8.39588 2.9115 7.95773 2.88844 7.86549L2.3811 8.29442Z" fill="#1E398D"/>
<path d="M7.21445 6.4265L7.17755 6.74012C7.01613 6.53258 6.76707 6.37115 6.34275 6.37115C5.62787 6.37115 5.12515 6.92 5.12515 7.68561C5.12515 8.45123 5.62787 9.00007 6.34275 9.00007C6.72556 9.00007 7.00229 8.87093 7.17755 8.61727L7.21445 8.9355H7.81864V6.4265H7.21445ZM6.47651 6.89233C6.91466 6.89233 7.20522 7.16444 7.20522 7.68561C7.20522 8.16528 6.89621 8.47429 6.47651 8.47429C6.05219 8.47429 5.76162 8.18373 5.76162 7.68561C5.76162 7.23824 6.01529 6.89233 6.47651 6.89233Z" fill="#1E398D"/>
<path d="M8.5808 5.78541L8.49316 6.4265H8.09652V6.90616H8.45166V7.89777C8.45166 8.52964 8.63153 8.9355 9.24956 8.9355H9.61853V8.41433H9.41098C9.13886 8.41433 9.08352 8.19295 9.08352 7.93467V6.90616H9.56779V6.4265H9.08352V5.78541H8.5808Z" fill="#1E398D"/>
</svg>
